<?xml version="1.0" encoding="utf-8"?>
<!-- Generated by IcoMoon.io -->
<svg version="1.1" xmlns="http://www.w3.org/2000/svg" xmlns:xlink="http://www.w3.org/1999/xlink" width="1200" height="60" viewBox="0 0 1200 60">
<svg id="icon-noun_876287_cc" width="48" height="60" viewBox="0 0 48 60" x="0" y="0">
<path fill="#ff831d" d="M12.96 6.72c-1.579 0-2.88 1.301-2.88 2.88v30.72c0 0 0 0 0 0 0 0.53 0.43 0.96 0.96 0.96 0.228 0 0.437-0.079 0.602-0.212l8.998-7.199 9 7.2c0.163 0.131 0.372 0.21 0.6 0.21 0.53 0 0.96-0.43 0.96-0.96 0-0 0-0 0-0v-10.155c3.777-0.477 6.72-3.702 6.72-7.605s-2.943-7.128-6.72-7.605v-5.355c0-1.579-1.301-2.88-2.88-2.88h-15.36zM12.96 8.64h15.36c0.548 0 0.96 0.412 0.96 0.96v5.355c-3.777 0.477-6.72 3.701-6.72 7.605s2.943 7.128 6.72 7.605v8.16l-8.040-6.435c-0.163-0.131-0.372-0.211-0.6-0.211s-0.437 0.079-0.602 0.212l-8.038 6.434v-28.725c0-0.548 0.412-0.96 0.96-0.96zM30.24 16.8c3.193 0 5.76 2.567 5.76 5.76s-2.567 5.76-5.76 5.76c-3.193 0-5.76-2.567-5.76-5.76s2.567-5.76 5.76-5.76zM30.135 17.745c-0.483 0.055-0.855 0.461-0.855 0.954 0 0.007 0 0.015 0 0.022v2.879h-2.88c-0.013-0.001-0.029-0.001-0.045-0.001s-0.032 0-0.047 0.001c-0.509 0.024-0.914 0.445-0.914 0.96 0 0.531 0.43 0.961 0.961 0.961 0.016 0 0.032-0 0.047-0.001l2.878 0v2.88c-0 0.004-0 0.009-0 0.014 0 0.53 0.43 0.96 0.96 0.96s0.96-0.43 0.96-0.96c0-0.005-0-0.010-0-0.014v-2.879h2.88c0.004 0 0.009 0 0.014 0 0.53 0 0.96-0.43 0.96-0.96s-0.43-0.96-0.96-0.96c-0.005 0-0.010 0-0.014 0h-2.879v-2.88c0-0.006 0-0.013 0-0.021 0-0.53-0.43-0.96-0.96-0.96-0.037 0-0.074 0.002-0.11 0.006z"></path>
</svg>
</svg>
