<svg id="Layer_1_1_" xmlns="http://www.w3.org/2000/svg" viewBox="0 0 64 64"><style>.st0{fill:#fff}.st1{fill:#3b434f}.st2{fill:#f5f3ef}</style><path class="st0" d="M1.9 10.2h60.2v51.6H1.9z"/><path class="st1" d="M5.9 1.9h52v27.7h-52z"/><path class="st2" d="M6.6 34.6h13.1v13.1H6.6zm37.9-.1h13.1v13.1H44.5z"/><path class="st1" d="M60 9h-1V1H5v8H4c-1.7 0-3 1.3-3 3v51h62V12c0-1.7-1.3-3-3-3zM7 3h50v26H7V3zm26 44V35h6v26h-6V49h-2v12h-6V35h6v12h2zm28 14H41V33H23v28H3V12c0-.6.4-1 1-1h1v20h54V11h1c.6 0 1 .4 1 1v49z"/><path class="st1" d="M5 49h16V33H5v16zm2-7h5v5H7v-5zm7 5v-5h5v5h-5zm5-7h-5v-5h5v5zm-7-5v5H7v-5h5zm31 14h16V33H43v16zm2-7h5v5h-5v-5zm7 5v-5h5v5h-5zm5-7h-5v-5h5v5zm-7-5v5h-5v-5h5zM34 47h2v2h-2zm-6 0h2v2h-2z"/><path class="st0" d="M9 27h40v-2H11V7h42v18h-2v2h4V5H9z"/><path class="st0" d="M36 15v-1c0-1.7-1.3-3-3-3V9h-2v2c-1.7 0-3 1.3-3 3s1.3 3 3 3h2c.6 0 1 .4 1 1s-.4 1-1 1h-2c-.6 0-1-.4-1-1v-1h-2v1c0 1.7 1.3 3 3 3v2h2v-2c1.7 0 3-1.3 3-3s-1.3-3-3-3h-2c-.6 0-1-.4-1-1s.4-1 1-1h2c.6 0 1 .4 1 1v1h2zm2 0h2v2h-2zm4 0h2v2h-2zm-18 0h2v2h-2zm-4 0h2v2h-2z"/></svg>