<?xml version="1.0" encoding="utf-8"?>
<!-- Generator: Adobe Illustrator 21.1.0, SVG Export Plug-In . SVG Version: 6.00 Build 0)  -->
<svg version="1.1" id="Layer_1" xmlns="http://www.w3.org/2000/svg" xmlns:xlink="http://www.w3.org/1999/xlink" x="0px" y="0px"
	 viewBox="0 0 128 128" style="enable-background:new 0 0 128 128;" xml:space="preserve">
<style type="text/css">
	.st0{fill:none;stroke:#3B434F;stroke-miterlimit:10;}
	.st1{fill:#FFFFFF;}
	.st2{fill:#3B434F;}
	.st3{opacity:5.882400e-02;fill:#3B434F;enable-background:new    ;}
	.st4{fill:#F7FBFB;}
	.st5{fill:#EDF1F1;}
	.st6{fill:#9EA0A4;}
	.st7{opacity:0.2;fill:#3B434F;enable-background:new    ;}
	.st8{fill:#3B444F;}
</style>
<g>
	<circle class="st0" cx="82.5" cy="23.7" r="3"/>
	<circle class="st0" cx="69.9" cy="22.7" r="4.2"/>
	<circle class="st0" cx="55.7" cy="27.1" r="4.8"/>
</g>
<path id="body-bg-flat" class="st1" d="M14.7,108c0,0-1.6-14.4,12.5-16h6v-2.8c0,0,4.3,1.8,8.6,0.2l0.1,2.6H49c0,0,12.3,1.2,11.6,16
	H14.7z"/>
<path id="Rounded_Rectangle_13_copy_3" class="st2" d="M60.5,108.3L60.5,108.3H15.1l0,0h-0.9l0.2-3.7c0.4-7.3,6.2-12.9,12.8-12.9h6
	v0.7h-5.6c-6.4,0-11.9,5.4-12.3,12.4l-0.2,2.6h45.1l-0.1-2.6c-0.4-7-6-12.4-12.3-12.4h-5.6v-0.7h6c6.6,0,12.4,5.6,12.8,12.9l0.2,3.7
	H60.5z"/>
<path id="neck_copy_7" class="st2" d="M33.7,88.9v4.2c0,2.2,1.8,3.9,3.9,3.9c2.2,0,3.9-1.8,3.9-3.9V89c0.2-0.1,0.5-0.1,0.7-0.2v4.4
	c0,2.6-2.1,4.7-4.7,4.7S33,95.7,33,93.2v-4.5C33.2,88.8,33.5,88.9,33.7,88.9z"/>
<path id="Rounded_Rectangle_2" class="st2" d="M49.9,100.6l-1.9,4c-0.1,0.2-0.3,0.3-0.5,0.2c-0.2-0.1-0.3-0.3-0.2-0.5l1.9-3.9
	l-1.5-2.5c-0.1-0.2,0-0.4,0.1-0.6c0.2-0.1,0.4,0,0.6,0.1l1.6,2.7C50,100.3,49.9,100.5,49.9,100.6z"/>
<path id="Rounded_Rectangle_2_copy_3" class="st2" d="M25.4,100.6l1.9,4c0.1,0.2,0.3,0.3,0.5,0.2c0.2-0.1,0.3-0.3,0.2-0.5l-1.9-3.9
	l1.5-2.5c0.1-0.2,0-0.4-0.2-0.6c-0.2-0.1-0.4,0-0.6,0.1l-1.6,2.7C25.3,100.3,25.3,100.5,25.4,100.6z"/>
<path id="Rectangle_24" class="st2" d="M33,91.5h0.7V108H33V91.5z"/>
<path id="Rectangle_24_copy" class="st2" d="M41.6,91.6h0.7v16.5h-0.7V91.6z"/>
<path id="_x32__copy_5" class="st1" d="M37.8,46.3c8.5,0,15.1,7.9,14.9,17.4l-0.2,10.1c-0.2,8.9-6.8,16-14.7,16s-14.5-7.1-14.7-16
	l-0.2-10.1C22.7,54.2,29.4,46.3,37.8,46.3z"/>
<path id="_x32__line" class="st2" d="M53.4,63.4l-0.2,10.5c-0.2,9.3-7.1,16.7-15.4,16.7s-15.2-7.4-15.4-16.7l-0.2-10.5
	c-0.2-9.9,6.8-18.1,15.6-18.1S53.6,53.5,53.4,63.4z M37.8,46.4c-8.3,0-14.9,7.8-14.7,17.3l0.2,10c0.2,8.9,6.7,15.9,14.5,15.9
	s14.3-7,14.5-15.9l0.2-10C52.7,54.2,46.1,46.4,37.8,46.4z"/>
<path id="_x31__copy_4" class="st3" d="M53,65.1l-0.7,11.1c0,0-3,12.9-14.7,14.4v0c0,0,0,0-0.1,0c0,0,0,0-0.1,0v0
	c-11.7-1.5-14.7-14.4-14.7-14.4l-0.7-11.1c3,13.4,5.6,14.3,5.6,14.3c-0.5-4.1,3.7-3.7,3.7-3.7c2.6,0.4,4.6,0.6,6.2,0.7
	c1.6-0.1,3.6-0.3,6.2-0.7c0,0,4.2-0.4,3.7,3.7C47.4,79.4,50,78.6,53,65.1z M45.4,80.8c-0.2-2.4-1.6-2.2-1.6-2.2
	c-2.6,0.8-4.6,1.2-6.2,1.4v0c-1.6-0.2-3.6-0.6-6.1-1.4c0,0-1.4-0.2-1.6,2.2c0,0-0.6,2.4,1.4,3.4l2.4,2.6c0,0,1.7,0.5,1.6-1.5
	c0,0-0.2-1.5,0.8-1.8h1.5v0h1.5c1,0.3,0.8,1.8,0.8,1.8c0,2,1.6,1.5,1.6,1.5l2.5-2.6C46,83.2,45.4,80.8,45.4,80.8z"/>
<path id="Rounded_Rectangle_3" class="st2" d="M36.2,84.4h3.3c0.2,0,0.3,0.1,0.3,0.3S39.6,85,39.4,85h-3.3c-0.2,0-0.3-0.1-0.3-0.3
	S36,84.4,36.2,84.4z"/>
<path id="_x32_" class="st2" d="M33.3,81.2l0.4-0.5c1.2,0.7,2.7,1.1,4.2,1.1c1.6,0,3-0.4,4.3-1.1l0.4,0.5c-1.3,0.8-2.9,1.2-4.6,1.2
	C36.2,82.4,34.6,81.9,33.3,81.2z"/>
<path id="Shape_11_copy" class="st4" d="M22.2,64.9c0,0-0.2-0.1-0.5-0.2c-0.2,0-0.3-0.1-0.6-0.1c-0.1,0-0.1,0-0.2,0
	c-0.1,0-0.1,0-0.2,0c-0.1,0-0.2,0-0.4,0.1c-0.5,0.1-1,0.5-1.3,1.2c-0.2,0.4-0.3,0.8-0.3,1.4c0,0.1,0,0.3,0,0.4c0,0.2,0,0.3,0,0.5
	c0,0.3,0.1,0.7,0.1,1.1c0,0-0.1,1.2,0.4,2.7c0.4,1.4,1.4,3.1,3.3,3.6C22.4,72.1,22.4,68.5,22.2,64.9L22.2,64.9z"/>
<path id="Shape_3" class="st2" d="M22.4,65.1c0,0-3.2-1-3.1,2.3c0,0,0.5,4.8,0.7,5.2c0,0,1.3,2.8,3.3,2.9c2,0.1,0,0,0,0l0,0.9
	c0,0-3.7-0.5-4.4-4.7l-0.6-3.8c0,0-0.4-5.1,3.8-3.8c4.1,1.3,0,0,0,0L22.4,65.1"/>
<path id="Shape_4" class="st2" d="M21.3,71.7c0,0-0.2,0.1-0.3,0.1s-0.3-0.1-0.3-0.1l-0.3-3.3c0,0,0.5-1.6,2.4-0.8l0,1
	c0,0-1.7-0.6-1.7,0.1C21.1,69.4,21.3,71.7,21.3,71.7z"/>
<path id="Shape_11_copy_x5F_1" class="st4" d="M53.4,64.9c0,0,0.2-0.1,0.5-0.2c0.2,0,0.4-0.1,0.6-0.1c0.1,0,0.1,0,0.2,0
	c0.1,0,0.1,0,0.2,0c0.1,0,0.2,0,0.4,0.1c0.5,0.1,1,0.5,1.3,1.2c0.2,0.4,0.3,0.8,0.3,1.4c0,0.1,0,0.3,0,0.4c0,0.2,0,0.3,0,0.5
	c0,0.3-0.1,0.7-0.1,1.1c0,0,0.1,1.2-0.4,2.7c-0.4,1.4-1.4,3.1-3.3,3.6C53.1,72.1,53.2,68.5,53.4,64.9L53.4,64.9z"/>
<path id="Shape_3_x5F_1" class="st2" d="M53.2,65.1c0,0,3.2-1,3.1,2.3c0,0-0.5,4.8-0.7,5.2c0,0-1.3,2.8-3.4,2.9c-2,0.1,0,0,0,0
	l0,0.9c0,0,3.7-0.5,4.4-4.7l0.6-3.8c0,0,0.4-5.1-3.8-3.8c-4.1,1.3,0,0,0,0L53.2,65.1"/>
<path id="Shape_4_x5F_1" class="st2" d="M54.2,71.7c0,0,0.2,0.1,0.3,0.1c0.2,0,0.3-0.1,0.3-0.1l0.3-3.3c0,0-0.5-1.6-2.4-0.8l0,1
	c0,0,1.7-0.6,1.7,0.1C54.4,69.4,54.2,71.7,54.2,71.7z"/>
<path id="new_vector_shape_done" class="st2" d="M39.1,71.5c0.1,0,0.2,0,0.2,0c0.5,0.7,0.7,1.7,1,2.6c0.1,0.3,0,0.8-0.1,1
	c-0.3,0.7-1.1,0.7-1.7,1c-0.2,0.1-0.3,0.2-0.5,0.3c-0.2-0.1-0.3-0.2-0.4-0.4c-0.2-0.3,0.1-0.4,0.2-0.5c0.3-0.2,1.4-0.4,1.5-0.7
	c0.2-0.2,0.1-0.7,0-0.9c-0.1-0.5-0.2-0.9-0.4-1.3c-0.1-0.3-0.3-0.6-0.2-0.9C38.7,71.6,39,71.5,39.1,71.5z"/>
<path id="eye" class="st2" d="M30.3,65.7c0.8,0,1.4,0.6,1.4,1.4s-0.6,1.4-1.4,1.4S29,67.8,29,67S29.6,65.7,30.3,65.7z"/>
<path id="eye_1" class="st2" d="M45.4,65.7c0.8,0,1.4,0.6,1.4,1.4s-0.6,1.4-1.4,1.4c-0.8,0-1.4-0.6-1.4-1.4S44.7,65.7,45.4,65.7z"/>
<path id="Ellipse_3" class="st5" d="M46,70.7c0.9,0,1.7,0.8,1.7,1.7S47,74.1,46,74.1c-0.9,0-1.7-0.8-1.7-1.7S45.1,70.7,46,70.7z"/>
<path id="Ellipse_3_copy" class="st5" d="M29.6,70.7c0.9,0,1.7,0.8,1.7,1.7s-0.8,1.7-1.7,1.7c-0.9,0-1.7-0.8-1.7-1.7
	S28.6,70.7,29.6,70.7z"/>
<path id="Shape_1_copy_5" class="st2" d="M51.4,64.5v5c0,1.2-1.2,3.1-3.2,3.3c-0.3,0-6.1,0-6.1,0c-2.6,0-3.1-3.1-3.1-3.1v-3.4h-2.4
	v3.4c0,0-0.5,3.1-3.1,3.1c0,0-5.8,0-6.1,0c-2-0.1-3.2-2-3.2-3.3v-5H22v-1.4h12.6c0,0,1.9,0.3,1.9,1.6H39c0-1.3,1.9-1.6,1.9-1.6h12.6
	v1.4H51.4z M35.2,65.1c0-0.5-0.5-0.5-0.5-0.5h-9.1v4.8c0,1.5,2,2,2,2h5.6c1.9,0,2-2,2-2S35.2,65.6,35.2,65.1z M50,64.6h-9.1
	c0,0-0.5,0.1-0.5,0.5s0,4.2,0,4.2s0.1,2,2,2H48c0,0,2-0.6,2-2V64.6z M48.1,72.7c0,0,0.1,0,0.1,0C48.3,72.7,48.2,72.7,48.1,72.7z
	 M27.4,72.7c0,0,0.1,0,0.1,0C27.4,72.7,27.3,72.7,27.4,72.7z"/>
<path id="Shape_6_copy_3" class="st6" d="M22.6,64.3c0,0,0.5-8.2,5.6-11.8c0,0,7.3,5,18.8,0c0,0,5.1,2.3,5.8,11.8h0.3
	c0,0,1.5-10.9-2.3-15.2c0,0-0.9-3.3-5.8-5.7l-1.8,1.1c0,0-1.2-1.5-4.4-3.3c0,0-2.3,1-3.5,2.9l-1.9-1.2c0,0-2.7,1.2-4.2,3.4l-2.9,0.4
	l-1.5,2.7c0,0-3.6,2.9-2.4,14.7L22.6,64.3z"/>
<path id="Shape_6_copy" class="st2" d="M53.6,64.3l-1.3-0.1C51.6,54.7,47,53,47,53C35.5,58,28.2,53,28.2,53
	c-4.4,3.8-5.1,11.4-5.1,11.4L21.9,64c-1.1-11.8,2.4-14.9,2.4-14.9l1.6-3l3-0.4c1.6-2.2,4.4-3.5,4.4-3.5l1.8,1.2
	c1.2-1.8,3.7-2.7,3.7-2.7c3.2,1.8,4.3,3.2,4.3,3.2l1.8-1c4.9,2.4,6.3,6.2,6.3,6.2C55.1,53.4,53.6,64.3,53.6,64.3z M50.4,49.3
	c0,0-0.6-3-5.5-5.4L43.1,45c0,0-1.2-1.5-4.3-3.3c0,0-2.1,1.1-3.3,2.9l-2-1.3c0,0-2.5,1.1-4,3.3l-2.7,0.4l-1.4,2.6
	c0,0-3,2.3-2.7,11.4l0.1-0.1c0,0,0.9-5.7,5.6-9.2c0,0,7.5,5.1,19,0.1c0,0,4.2,2,5.7,9.1C52.9,61.1,53.8,53.8,50.4,49.3z"/>
<path id="Shape_34" class="st2" d="M35.7,99.6l1.9-2.1l2.1,2.1l-1.1,1.1l1.8,7.2h-5.4l1.9-7.2L35.7,99.6z"/>
<path id="Rectangle_24_copy_4" class="st2" d="M40,108l-1.9-7.2l0.4-0.1l0.3-0.3l2,7.6L40,108z M34.5,107.9l2-7.5l0.1,0.1l0.4,0.3
	l0.1,0l-1.9,7.1L34.5,107.9z"/>
<path id="Ellipse_6" class="st2" d="M42.3,101.6l-0.5,0.5l-2.1-2.1c-0.4,0.6-1.1,1.1-1.9,1.1c-0.8,0-1.6-0.5-1.9-1.1l-2.1,2.1
	l-0.5-0.5l4.2-4.2l0.3-0.3l0.3,0.3L42.3,101.6z M36.3,99.6c0.3,0.6,0.8,0.9,1.5,0.9c0.6,0,1.2-0.4,1.5-0.9l-1.5-1.5L36.3,99.6z"/>
<path id="new_x5F_vector_x5F_shape_x5F_done_copy" class="st7" d="M38,44.3c0.1,0.1,0.1,0.1,0,0.2c0,0.1-0.1,0.3-0.1,0.4
	c0,0.2-0.1,0.4-0.1,0.6c0,0.2,0,0.3,0,0.5c0,0.1,0,0.2,0,0.3c0,0,0,0.1,0,0.1c0,0,0,0,0,0c0,0.1,0,0.1,0,0.2c0,0,0,0.1,0,0.1
	c0,0.1,0,0.1,0,0.2c0,0,0,0,0,0.1c0,0.1,0,0.1,0,0.2c0,0,0,0,0,0c0,0.1,0,0.2,0.1,0.2c0,0.1,0.1,0.3,0.1,0.4c0,0.1,0.1,0.2,0.1,0.3
	c0.1,0.2,0.1,0.3,0.2,0.5c0,0.1,0.1,0.2,0.1,0.3c0.1,0.3,0.3,0.5,0.4,0.8c0,0.1,0.1,0.2,0.1,0.2c0,0.1,0.1,0.1,0.1,0.2
	c0,0,0,0.1,0.1,0.1c0,0.1,0.1,0.1,0.1,0.2c0,0.1,0.1,0.1,0.1,0.2c0,0.1,0.1,0.1,0.1,0.2c0.1,0.1,0.1,0.2,0.2,0.3
	c0.1,0.1,0.2,0.2,0.2,0.3c0.2,0.2,0.3,0.4,0.5,0.6c0,0.1,0.1,0.1,0.2,0.2c0,0,0.1,0.1,0.1,0.1c0,0,0,0,0,0c0,0,0,0.1,0,0.1
	c0,0,0,0.1,0,0.1c0,0,0,0.1-0.1,0.1c0,0-0.1,0.1-0.1,0.1c0,0,0,0,0,0c0,0-0.1,0.1-0.1,0.1c-0.1,0-0.1,0-0.2-0.1
	c-0.1-0.1-0.2-0.2-0.2-0.2c0,0,0,0,0,0c-0.1-0.1-0.2-0.2-0.3-0.3c0,0,0,0-0.1-0.1c-0.1-0.1-0.1-0.2-0.2-0.2
	c-0.2-0.2-0.3-0.4-0.5-0.6c0,0-0.1-0.1-0.1-0.1c-0.2-0.3-0.5-0.7-0.6-1c0-0.1-0.1-0.2-0.1-0.3c-0.1-0.3-0.2-0.5-0.4-0.8
	c0,0,0-0.1,0-0.1c-0.1-0.2-0.1-0.3-0.2-0.5c-0.1-0.2-0.1-0.3-0.1-0.5c0,0,0-0.1,0-0.1c0,0,0,0,0,0c0,0,0-0.1,0-0.1
	c0-0.1,0-0.2-0.1-0.3c0-0.1,0-0.2,0-0.3c0,0,0,0,0,0c0-0.1,0-0.1,0-0.2c0-0.1,0-0.2,0-0.3c0-0.1,0-0.2,0-0.4c0-0.1,0-0.2,0-0.4
	c0-0.3,0.1-0.7,0.2-1c0-0.1,0.1-0.2,0.1-0.4c0-0.1,0.1-0.2,0.1-0.3c0,0,0,0,0-0.1c0,0,0-0.1,0.1-0.1C37.9,44.3,37.9,44.2,38,44.3
	C38,44.3,38,44.3,38,44.3z M34.8,46.6c0.1,0.1,0.1,0.1,0.1,0.2c0,0.1,0,0.1,0,0.2c0,0,0,0.1,0,0.1c0,0,0,0.1,0,0.1c0,0,0,0.1,0,0.1
	c0,0,0,0.1,0,0.1c0,0,0,0.1,0,0.1c0,0.1,0,0.2,0.1,0.3c0,0.1,0.1,0.2,0.1,0.4c0.1,0.2,0.1,0.3,0.2,0.5c0,0.1,0.1,0.2,0.1,0.2
	c0,0.1,0,0.1,0.1,0.2c0.1,0.2,0.2,0.5,0.4,0.7c0.1,0.2,0.2,0.4,0.3,0.6c0,0.1,0.1,0.1,0.1,0.2c0.1,0.1,0.2,0.3,0.3,0.4
	c0.1,0.1,0.2,0.2,0.3,0.4c0,0,0,0,0,0.1c0,0.1,0.1,0.1,0.2,0.2c0,0,0.1,0.1,0.1,0.1c0,0.1,0.1,0.2,0.1,0.3c0,0.1-0.2,0.2-0.3,0.3
	c0,0-0.1,0-0.1,0c-0.1,0-0.1-0.1-0.1-0.1c0-0.1-0.1-0.1-0.1-0.1c-0.1-0.1-0.2-0.2-0.2-0.3c-0.2-0.2-0.3-0.4-0.5-0.6
	c-0.3-0.5-0.6-1-0.8-1.5c-0.1-0.2-0.2-0.4-0.2-0.6c0-0.1,0-0.2-0.1-0.2c0-0.1,0-0.2-0.1-0.3c0,0,0,0,0,0c0,0,0,0,0-0.1
	c0,0,0,0,0-0.1c0,0,0-0.1,0-0.1c0,0,0-0.1,0-0.1c0,0,0,0,0-0.1c0-0.1,0-0.2,0-0.3c0,0,0,0,0-0.1c0-0.1,0-0.2,0-0.3
	c0-0.1,0-0.2,0-0.3c0,0,0-0.1,0-0.1c0,0,0-0.1,0-0.1c0,0,0-0.1,0-0.1c0,0,0-0.1,0.1-0.1C34.7,46.6,34.7,46.6,34.8,46.6
	C34.8,46.6,34.8,46.6,34.8,46.6z M32.4,47.1c0.1,0.1,0.1,0.1,0.1,0.2c0,0.1,0,0.2,0,0.4c0,0.1,0,0.2,0,0.3c0,0,0,0.1,0,0.1
	c0,0.1,0,0.1,0,0.2c0,0,0,0,0,0c0,0,0,0.1,0,0.1c0,0,0,0,0,0c0,0.1,0,0.1,0,0.2c0.1,0.2,0.1,0.3,0.1,0.5c0.1,0.3,0.3,0.7,0.5,1
	c0.1,0.1,0.1,0.2,0.2,0.3c0,0,0.1,0.1,0.1,0.1c0.1,0.1,0.2,0.2,0.2,0.4c0.1,0.2,0.2,0.3,0.4,0.5c0,0.1,0.1,0.1,0.1,0.2
	c0,0,0.1,0.1,0.1,0.1c0.1,0.1,0.2,0.2,0.3,0.3c0,0.1,0.1,0.1,0.1,0.2c0.1,0.1,0.1,0.1,0.2,0.2c0,0,0,0,0,0c0.1,0.1,0.1,0.1,0.2,0.2
	c0,0,0,0,0.1,0.1c0.1,0.1,0.2,0.2,0.3,0.2c0,0,0.1,0,0.1,0.1c0,0,0,0,0,0c0,0,0.1,0.1,0.1,0.1c0,0,0,0,0,0c0,0,0.1,0.1,0.2,0.1
	c0,0,0,0,0,0c0.1,0.1,0.1,0.1,0.2,0.2c0,0,0.1,0,0.1,0.1c0,0,0,0,0.1,0c0,0,0.1,0.1,0.1,0.1c0,0,0.1,0,0.1,0.1c0,0,0.1,0,0.1,0.1
	c0.1,0,0.1,0.1,0.2,0.1c0.1,0.1,0.3,0.2,0.4,0.3c0.1,0,0.1,0.1,0.2,0.1c0,0,0,0.1,0,0.1c0,0.1,0,0.2,0,0.2c0,0,0,0,0,0.1
	c0,0,0,0.1-0.1,0.1c0,0-0.1,0.1-0.1,0.1c0,0-0.1,0-0.2,0c0,0,0,0-0.1,0c-0.1,0-0.2-0.1-0.3-0.2c0,0,0,0,0,0c0,0-0.1,0-0.1-0.1
	c0,0-0.1,0-0.1-0.1c0,0-0.1,0-0.1-0.1c0,0,0,0,0,0c0,0-0.1,0-0.1-0.1c0,0-0.1-0.1-0.1-0.1c0,0-0.1-0.1-0.1-0.1c0,0-0.1-0.1-0.1-0.1
	c0,0,0,0-0.1,0c0,0-0.1-0.1-0.1-0.1c0,0,0,0-0.1,0c0,0-0.1-0.1-0.1-0.1c0,0,0,0,0,0c0,0-0.1-0.1-0.1-0.1c0,0,0,0,0,0
	c0,0-0.1,0-0.1-0.1c0,0,0,0,0,0c-0.1-0.1-0.2-0.1-0.2-0.2c0,0,0,0-0.1,0c-0.1-0.1-0.2-0.2-0.3-0.3c0,0,0,0-0.1-0.1
	c-0.1-0.1-0.2-0.2-0.2-0.2c0,0,0,0,0,0c0,0-0.1-0.1-0.1-0.1c0,0,0,0,0,0c-0.1-0.1-0.2-0.3-0.3-0.4c-0.2-0.2-0.4-0.5-0.5-0.7
	c0-0.1-0.1-0.1-0.1-0.2c-0.1-0.1-0.1-0.2-0.2-0.3c-0.1-0.2-0.2-0.3-0.2-0.5c-0.1-0.1-0.1-0.2-0.1-0.4c0-0.1-0.1-0.2-0.1-0.3
	c0-0.1-0.1-0.2-0.1-0.3c0-0.1,0-0.2-0.1-0.3c0,0,0-0.1,0-0.1c0-0.1,0-0.2-0.1-0.3c-0.1-0.4-0.1-0.8,0-1.2c0-0.1,0-0.2,0-0.3
	c0,0,0-0.1,0.1-0.1C32.2,47.1,32.3,47.1,32.4,47.1C32.3,47.1,32.3,47.1,32.4,47.1z"/>
<path id="Shape_16" class="st8" d="M95.1,41.3c-1.1-1-0.5-3.6-0.5-3.6s0-0.2,0.2-0.5c0.6-1.8,3.4-7.6,11.4-4.3l-2,0.5
	c0,0,6.5,0.4,6.5,10.9s0,24.8,0,24.8s-5,4.4-11.2-2.9C93.4,58.9,95.1,48,95.1,48S96.2,42.3,95.1,41.3z"/>
<path id="Rounded_Rectangle_7" class="st8" d="M90.9,39.5c7.4,0,13.4,6,13.4,13.4v2.8c0,7.4-6,13.4-13.4,13.4s-13.4-6-13.4-13.4
	v-2.8C77.6,45.5,83.6,39.5,90.9,39.5z"/>
<path id="body-bg-flat_copy" class="st1" d="M73.6,90.3c0,0-0.8-11.2,9.7-12.3H88v-2.2c0,0,3.3,1.4,6.7,0.2l0.1,2h5.5
	c0,0,9.5,0.4,9,12.4L73.6,90.3z"/>
<path id="Rounded_Rectangle_13" class="st2" d="M109.4,90.7L109.4,90.7H73.9l0,0h-0.7l0.2-2.9c0.3-5.7,4.8-10.1,10-10.1h3.9v0.6
	h-3.6c-5,0-9.3,4.2-9.6,9.7l-0.1,2h35.3l-0.1-2c-0.3-5.5-4.7-9.7-9.6-9.7h-4.8v-0.6h5.1c5.2,0,9.7,4.4,10,10.1l0.2,2.9H109.4z"/>
<path id="Ellipse_4" class="st2" d="M91.2,84.3c-2.8,0-5.2-2.3-5.2-5.2c0-0.5,0.1-1,0.2-1.4h0h0.5h0.9v0.6h-1.1
	c-0.1,0.3-0.1,0.6-0.1,0.9c0,2.6,2.1,4.6,4.6,4.6c2.6,0,4.6-2.1,4.6-4.6c0-0.3,0-0.6-0.1-0.9h-1.1v-0.6h0.9h0.5h0
	c0.1,0.5,0.2,0.9,0.2,1.4C96.3,82,94,84.3,91.2,84.3z"/>
<path id="neck" class="st2" d="M88,75.6v3.3c0,1.7,1.4,3.1,3.1,3.1s3.1-1.4,3.1-3.1v-3.2c0.2-0.1,0.4-0.1,0.5-0.2v3.4
	c0,2-1.6,3.6-3.6,3.6s-3.6-1.6-3.6-3.6v-3.5C87.6,75.5,87.8,75.5,88,75.6z"/>
<path id="_x31__copy_4_1_" class="st1" d="M91.2,43.4c6.7,0,11.9,5.9,11.6,12.7l-0.4,9.2c-1.1,6.2-5.3,10.7-11.2,11.4
	C85.6,76,81.2,71.4,80,65.2L79.6,56C79.4,49.3,84.5,43.4,91.2,43.4z"/>
<path id="_x31__line" class="st2" d="M103.5,55.6l-0.4,9.6c-1.1,6.5-5.7,11.2-11.9,11.9c-6-0.6-10.7-5.4-12-11.9l-0.4-9.6
	c-0.3-7.1,5.2-13.2,12.3-13.2C98.4,42.4,103.8,48.6,103.5,55.6z M91.2,43.1c-6.7,0-11.9,5.9-11.6,12.7L80,65
	c1.2,6.2,5.6,10.8,11.3,11.4c5.8-0.6,10.1-5.1,11.2-11.4l0.4-9.2C103.1,49.1,97.9,43.1,91.2,43.1z"/>
<path id="usta" class="st2" d="M97,68.5c-1,0.8-3.2,1.6-5.7,1.6c-2.5,0-4.7-0.8-5.7-1.6c0,0-0.1-0.3,0-0.4C85.8,68,86,68,86,68
	c1,0.8,2.7,1.5,5.3,1.5c2.5,0,4.3-0.7,5.3-1.5c0,0,0.2-0.1,0.4,0C97.1,68.2,97,68.5,97,68.5z"/>
<path id="_x2D_" class="st2" d="M89.5,71.4h3.4V72h-3.4V71.4z"/>
<path id="Shape_11_copy_1_" class="st1" d="M79,56.8c0,0-0.1-0.1-0.4-0.2c-0.1,0-0.3-0.1-0.4-0.1c0,0-0.1,0-0.1,0c0,0-0.1,0-0.1,0
	c-0.1,0-0.2,0-0.3,0.1c-0.4,0.1-0.8,0.4-1,1c-0.1,0.3-0.2,0.6-0.2,1.1c0,0.1,0,0.2,0,0.4c0,0.1,0,0.3,0,0.4c0,0.3,0.1,0.6,0.1,0.9
	c0,0-0.1,1,0.3,2.1c0.3,1.1,1.1,2.4,2.6,2.8C79.1,62.4,79.1,59.6,79,56.8L79,56.8z"/>
<path id="Shape_3_1_" class="st2" d="M79.1,56.9c0,0-2.5-0.8-2.4,1.8c0,0,0.4,3.7,0.5,4.1c0,0,1,2.2,2.6,2.3c1.6,0.1,0,0,0,0l0,0.7
	c0,0-2.9-0.4-3.4-3.7l-0.4-3c0,0-0.3-4,3-3c3.2,1,0,0,0,0L79.1,56.9"/>
<path id="Shape_4_1_" class="st2" d="M78.3,62.1c0,0-0.1,0.1-0.3,0.1c-0.1,0-0.3-0.1-0.3-0.1l-0.3-2.6c0,0,0.4-1.3,1.9-0.6l0,0.7
	c0,0-1.3-0.5-1.3,0.1C78.2,60.3,78.3,62.1,78.3,62.1z"/>
<path id="Shape_11_copy_x5F_1_1_" class="st1" d="M103.5,56.8c0,0,0.1-0.1,0.4-0.2c0.1,0,0.3-0.1,0.4-0.1c0,0,0.1,0,0.1,0
	c0,0,0.1,0,0.1,0c0.1,0,0.2,0,0.3,0.1c0.4,0.1,0.8,0.4,1,1c0.1,0.3,0.2,0.6,0.2,1.1c0,0.1,0,0.2,0,0.4c0,0.1,0,0.3,0,0.4
	c0,0.3-0.1,0.6-0.1,0.9c0,0,0.1,1-0.3,2.1c-0.3,1.1-1.1,2.4-2.6,2.8C103.3,62.4,103.4,59.6,103.5,56.8L103.5,56.8z"/>
<path id="Shape_3_x5F_1_1_" class="st2" d="M103.2,56.9c0,0,2.5-0.8,2.4,1.8c0,0-0.4,3.7-0.5,4.1c0,0-1,2.2-2.6,2.3
	c-1.6,0.1,0,0,0,0l0,0.7c0,0,2.9-0.4,3.4-3.7l0.4-3c0,0,0.3-4-3-3c-3.2,1,0,0,0,0L103.2,56.9"/>
<path id="Shape_4_x5F_1_1_" class="st2" d="M104.1,62.1c0,0,0.1,0.1,0.3,0.1s0.3-0.1,0.3-0.1l0.3-2.6c0,0-0.4-1.3-1.9-0.6l0,0.7
	c0,0,1.3-0.5,1.3,0.1C104.2,60.3,104.1,62.1,104.1,62.1z"/>
<path id="new_vector_shape_done_1_" class="st2" d="M92.2,61.9c0.1,0,0.1,0,0.2,0c0.4,0.5,0.5,1.3,0.7,2c0.1,0.2,0,0.6-0.1,0.7
	c-0.2,0.6-0.8,0.5-1.4,0.8c-0.1,0.1-0.2,0.2-0.4,0.2c-0.1-0.1-0.3-0.1-0.3-0.3c-0.1-0.2,0-0.3,0.2-0.4c0.3-0.1,1.1-0.3,1.2-0.5
	c0.1-0.1,0-0.5,0-0.7c-0.1-0.4-0.2-0.7-0.3-1c-0.1-0.2-0.3-0.5-0.2-0.7C92,62,92.1,62,92.2,61.9z"/>
<path id="Rounded_Rectangle_8" class="st2" d="M84.8,57.8h0.7c0.4,0,0.7,0.3,0.7,0.7c0,0.4-0.3,0.7-0.7,0.7h-0.7
	c-0.4,0-0.7-0.3-0.7-0.7C84.1,58.2,84.4,57.8,84.8,57.8z"/>
<path id="Rounded_Rectangle_8_copy" class="st2" d="M97,57.8h0.7c0.4,0,0.7,0.3,0.7,0.7c0,0.4-0.3,0.7-0.7,0.7H97
	c-0.4,0-0.7-0.3-0.7-0.7C96.2,58.2,96.5,57.8,97,57.8z"/>
<path id="Ellipse_3_1_" class="st5" d="M97.6,61.3c0.7,0,1.3,0.6,1.3,1.3c0,0.7-0.6,1.3-1.3,1.3c-0.7,0-1.3-0.6-1.3-1.3
	C96.3,61.9,96.9,61.3,97.6,61.3z"/>
<path id="Ellipse_3_copy_1_" class="st5" d="M84.8,61.3c0.7,0,1.3,0.6,1.3,1.3c0,0.7-0.6,1.3-1.3,1.3c-0.7,0-1.3-0.6-1.3-1.3
	C83.4,61.9,84,61.3,84.8,61.3z"/>
<path id="glasses" class="st8" d="M102.8,56.3c-0.1,0.6-0.1,1.4-0.3,2c-0.4,2-2.1,3.9-5.1,4.1c-3,0.2-5.5-1.3-5.6-3.3
	c0-0.3-0.1-0.7-0.1-1.1c-0.4-0.2-0.8-0.2-1.3,0c-0.1,0.4-0.1,0.8-0.1,1.1c-0.1,2.1-2.7,3.5-5.6,3.3c-3-0.2-4.7-2.1-5.1-4.1
	c-0.1-0.7-0.2-1.4-0.3-2l-0.4,0l0.1-0.8l0.1,0l2.7,0.2l2.3,0.2l2.3,0.2l3.5,0.3c0.2,0,0.4,0.1,0.5,0.3c0.5,0.2,1,0.2,1.5,0
	c0.1-0.2,0.3-0.3,0.5-0.3l3.5-0.3l2.3-0.2l2.3-0.2l2.7-0.2l0.1,0l0.1,0.8L102.8,56.3z M88.8,57.2l-6.9-0.5c-0.9-0.1-1.2,0.9-1.3,1.7
	c-0.1,1.6,1.7,3.1,4.1,3.3s4.4-1,4.5-2.7C89.3,58.2,89.5,57.8,88.8,57.2z M101.5,58.4c-0.1-0.8-0.4-1.8-1.3-1.7l-6.9,0.5
	c-0.7,0.6-0.4,1.1-0.4,1.8c0.1,1.6,2.1,2.8,4.5,2.7C99.8,61.5,101.6,60,101.5,58.4z"/>
<path id="Shape_26" class="st2" d="M79.8,48.6l3.9-4.9l3.5-1.6l4.7-0.7l5.4,0.3l7.3,7.6l-2,7.1c0,0-0.5-3.1-2.9-5.6
	c-2.3-2.3-3.7-2.9-3.7-2.9s-0.9,3.4-6.5,3.3c-10.2-0.2-9.7,7-10.1,7.7c0,0.1-0.1-3-0.1-3L79.8,48.6z"/>
</svg>
