<svg xmlns="http://www.w3.org/2000/svg" viewBox="0 0 17.300045 17.300152" height="65.386" width="65.386"><defs><clipPath id="a"><path d="M0 49.04h49.04V0H0z"/></clipPath></defs><g fill="#FF8F14" clip-path="url(#a)" transform="matrix(.35278 0 0 -.35278 0 17.3)"><path d="M28.392 19.88a.507.507 0 0 1-.51-.51.51.51 0 0 1 .51-.514h8.77a.513.513 0 0 1 0 1.024zm-13.447 2.345l-1.76-2.97 2.16.815.318-2.284 1.696 2.86c-.107.025-.216.058-.32.1-.385.157-.682.445-.867.788a1.748 1.748 0 0 0-1.056.492c-.062.064-.115.13-.172.2m8.707.003c-.043-.07-.1-.136-.162-.2a1.732 1.732 0 0 0-1.062-.496 1.717 1.717 0 0 0-.866-.788 2.163 2.163 0 0 0-.32-.102l1.696-2.86.32 2.285 2.16-.816zm4.74 2.802a.51.51 0 0 1-.51-.514c0-.283.225-.51.51-.51h8.77a.513.513 0 0 1 0 1.024zm-9.09 3.91a2.73 2.73 0 0 0 0-5.463 2.73 2.73 0 0 0 0 5.463m9.09 1.242a.51.51 0 0 1-.51-.514c0-.282.225-.51.51-.51h8.77a.513.513 0 0 1 0 1.024zm-9.09 1.07a.863.863 0 0 1-.854-.75.865.865 0 0 1-1.075.37.868.868 0 0 1-.505-1.024.865.865 0 0 1-1.135-.073.856.856 0 0 1-.074-1.13.868.868 0 0 1-1.02-.506.864.864 0 0 1 .37-1.073.862.862 0 0 1 0-1.71.862.862 0 0 1 .65-1.58.863.863 0 0 1 1.208-1.21.87.87 0 0 1 .505-1.02c.4-.164.862 0 1.075.37a.863.863 0 0 1 1.71 0 .86.86 0 0 1 1.07-.37c.41.168.62.606.51 1.02a.858.858 0 0 1 1.13.073c.307.312.334.797.074 1.136a.874.874 0 0 1 1.025.506c.163.4 0 .86-.37 1.075a.862.862 0 0 1 0 1.71c.37.213.533.673.37 1.074a.87.87 0 0 1-1.025.507.86.86 0 0 1-1.204 1.204.87.87 0 0 1-.51 1.025.86.86 0 0 1-1.07-.37.866.866 0 0 1-.857.75m-8.006 1.576h27.862V16.21H11.294zm-.514 1.025a.513.513 0 0 1-.51-.515V15.7a.51.51 0 0 1 .51-.514h28.89a.51.51 0 0 1 .51.514v17.64a.51.51 0 0 1-.51.515z"/><path d="M47.54 24.52c0-12.713-10.307-23.02-23.02-23.02C11.805 1.5 1.5 11.807 1.5 24.52c0 12.714 10.306 23.02 23.02 23.02 12.713 0 23.02-10.306 23.02-23.02z" fill="none" stroke="#FF8F14" stroke-width="3" stroke-miterlimit="10"/></g></svg>