<svg xmlns="http://www.w3.org/2000/svg" viewBox="0 0 15.522222 15.522222"><defs><clipPath id="a"><path d="M0 44h44V0H0z"/></clipPath></defs><g fill="#FB6A4B" clip-path="url(#a)" transform="matrix(.35278 0 0 -.35278 0 15.522)"><path d="M2 4h40V2H2zm3 4h34V6H5zm30 20h2V10h-2zm-10 0h8V10h-8zm-4 0h2V10h-2zm-10 0h8V10h-8zm-4 0h2V10H7zm-2 4h34v-2H5zm24 6a1 1 0 1 1 0-2 1 1 0 0 1 0 2m-14 0a1 1 0 1 1 0-2 1 1 0 0 1 0 2m7 2a2 2 0 1 1 0-4 2 2 0 0 1 0 4m0 2l20-5.7V34H2v2.2zm-.3 2l-21-6c-.4-.2-.7-.6-.7-1v-4c0-.6.4-1 1-1h2v-3c0-.6.4-1 1-1h1V10H4c-.6 0-1-.4-1-1V6H1c-.6 0-1-.4-1-1V1c0-.6.4-1 1-1h42c.6 0 1 .4 1 1v4c0 .6-.4 1-1 1h-2v3c0 .6-.4 1-1 1h-1v18h1c.6 0 1 .4 1 1v3h2c.6 0 1 .4 1 1v4c0 .4-.3.8-.7 1l-21 6z"/></g></svg>