<?xml version="1.0"?>
<!--Icons from directory ""-->
<svg xmlns="http://www.w3.org/2000/svg" width="32" height="32" viewBox="0 0 32 32"><svg xmlns:xlink="http://www.w3.org/1999/xlink" xml:space="preserve" version="1.1" y="0" x="0px" viewBox="0 0 48 60" enable-background="new 0 0 48 48" width="32" height="32" id="noun_111025_cc"><g stroke-linejoin="round" stroke="#000" stroke-linecap="round" stroke-miterlimit="10" stroke-width="2" fill="none"><rect height="8.5" width="26" y="1" x="14.8"/><rect height="17.5" width="26" y="29.5" x="14.8"/><polyline points="14.8 33.7 1.9 33.7 1.9 9.4 46.1 9.4 46.1 33.7 40.8 33.7"/></g><path d="m35.2 15.5h-14.8c-0.7 0-1.3-0.6-1.3-1.4s0.6-1.4 1.3-1.4h14.8c0.7 0 1.3 0.6 1.3 1.4s-0.6 1.4-1.3 1.4z"/><circle cy="17.6" cx="22.4" r="1.2"/><circle cy="17.6" cx="27.8" r="1.2"/><circle cy="17.6" cx="33.2" r="1.2"/><circle cy="21.3" cx="22.4" r="1.2"/><circle cy="21.3" cx="27.8" r="1.2"/><circle cy="21.3" cx="33.2" r="1.2"/><circle cy="24.9" cx="22.4" r="1.2"/><circle cy="24.9" cx="27.8" r="1.2"/><circle cy="24.9" cx="33.2" r="1.2"/><g stroke-linejoin="round" stroke="#000" stroke-linecap="round" stroke-miterlimit="10" stroke-width="2" fill="none"><line x1="18.3" y2="34.3" x2="37.2" y1="34.3"/><line x1="18.3" y2="38.3" x2="37.2" y1="38.3"/><line x1="18.3" y2="42.3" x2="37.2" y1="42.3"/></g><path stroke-linejoin="round" d="m12 28.3c0 1.5-1.4 2.6-3.1 2.6v0c-1.7 0-3.1-1.2-3.1-2.6v-13.8c0-1.5 1.4-2.6 3.1-2.6v0c1.7 0 3.1 1.2 3.1 2.6v13.8z" stroke="#000" stroke-linecap="round" stroke-miterlimit="10" stroke-width="2" fill="none"/><circle cy="13.1" cx="42" r="1.2"/><text font-size="5px" font-family="'Helvetica Neue', Helvetica, Arial-Unicode, Arial, Sans-serif" y="63" x="0" font-weight="bold" fill="#000000">Created by Creative Stall</text><text font-size="5px" font-family="'Helvetica Neue', Helvetica, Arial-Unicode, Arial, Sans-serif" y="68" x="0" font-weight="bold" fill="#000000">from the Noun Project</text></svg></svg>
