<svg fill="#FF8F14" xmlns="http://www.w3.org/2000/svg" viewBox="0 0 17.300045 17.300222" height="65.387" width="65.386"><defs><clipPath id="a"><path d="M0 49.04h49.04V0H0z"/></clipPath></defs><path d="M4.232 4.324h8.836V5.43H4.232z"/><g clip-path="url(#a)" transform="matrix(.35278 0 0 -.35278 0 17.3)"><path d="M14.085 23.214h6.262V22.17h-6.262zm0 2.088h4.697v-1.044h-4.697zm-2.09-5.74h8.38c.27 4.074 3.66 7.305 7.8 7.305s7.53-3.23 7.8-7.304h1.07v10.435h-25.05z"/><path d="M26.14 20.092c.355 0 .655.45.655.985 0 .535-.3.986-.654.986-.354 0-.654-.45-.654-.986 0-.534.3-.985.655-.985M30.213 17.99c-.355 0-.655-.45-.655-.985 0-.535.3-.986.655-.986.354 0 .654.45.654.985 0 .534-.3.985-.654.985"/><path d="M25.094 15.273l-.686.685 6.85 6.85.687-.684zm5.12-.223c-.896 0-1.625.877-1.625 1.954 0 1.078.728 1.955 1.623 1.955s1.623-.878 1.623-1.956c0-1.077-.728-1.954-1.623-1.954m-4.072 7.98c.896 0 1.625-.875 1.625-1.953 0-1.077-.73-1.954-1.624-1.954-.895 0-1.623.877-1.623 1.954 0 1.078.728 1.954 1.624 1.954m2.035 2.793a6.79 6.79 0 0 1-6.784-6.783 6.792 6.792 0 0 1 6.785-6.785 6.79 6.79 0 0 1 6.783 6.785 6.79 6.79 0 0 1-6.783 6.783"/><path d="M47.54 24.52c0-12.714-10.307-23.02-23.02-23.02C11.805 1.5 1.5 11.805 1.5 24.52c0 12.713 10.306 23.02 23.02 23.02 12.713 0 23.02-10.307 23.02-23.02z" fill="none" stroke="#FF8F14" stroke-width="3" stroke-miterlimit="10"/></g></svg>