<svg  id="delivAndPaym-online" xmlns="http://www.w3.org/2000/svg" viewBox="0 0 20.361238 20.361204" height="40px" width="40px"><defs><clipPath id="a"><path d="M0 57.717h57.717V0H0z"/></clipPath></defs><g fill="#FF8F14" clip-path="url(#a)" transform="matrix(.35278 0 0 -.35278 0 20.36)"><path d="M42.164 16.603H15.552V36.21h26.612zm-5.602 24.16a.7.7 0 1 0 0-1.4.7.7 0 0 0 0 1.4m2.1 0a.7.7 0 0 0 0-1.4.7.7 0 0 0-.7.7.7.7 0 0 0 .7.7m2.102 0a.7.7 0 1 0 0-1.398.7.7 0 0 0 0 1.4m1.4 1.75H15.552a1.4 1.4 0 0 1-1.4-1.4V16.602a1.4 1.4 0 0 1 1.4-1.4h26.612c.774 0 1.402.627 1.402 1.4v24.51c0 .774-.628 1.402-1.402 1.402"/><path d="M40.764 25.007c0-.385-.315-.7-.7-.7h-22.41c-.386 0-.7.315-.7.7v9.104c0 .386.314.702.7.702h22.41c.385 0 .7-.316.7-.7zM23.956 20.104c0-.385-.315-.7-.7-.7h-5.603c-.385 0-.7.315-.7.7v2.102c0 .384.315.7.7.7h5.603c.385 0 .7-.316.7-.7zM32.36 20.104c0-.385-.315-.7-.7-.7h-5.603c-.385 0-.7.315-.7.7v2.102c0 .384.315.7.7.7h5.603c.385 0 .7-.316.7-.7zM40.764 20.104c0-.385-.315-.7-.7-.7H34.46c-.383 0-.7.315-.7.7v2.102c0 .384.317.7.7.7h5.604c.385 0 .7-.316.7-.7zM19.054 18.704h2.8v-.7h-2.8zM27.458 18.704h2.8v-.7h-2.8zM35.86 18.704h2.803v-.7H35.86z"/><path d="M56.217 28.858c0-15.11-12.25-27.358-27.358-27.358C13.75 1.5 1.5 13.75 1.5 28.858c0 15.11 12.25 27.36 27.36 27.36 15.108 0 27.357-12.25 27.357-27.36z" fill="none" stroke="#FF8F14" stroke-width="3" stroke-miterlimit="10"/></g></svg>