<svg xmlns="http://www.w3.org/2000/svg" xmlns:xlink="http://www.w3.org/1999/xlink" version="1.1" x="0px" y="0px" viewBox="0 0 100 125" enable-background="new 0 0 100 100" xml:space="preserve"><g fill="#FF8F14"><path d="M89.531,50.467l-4.661-3.225l4.22-3.784c0.522-0.468,0.761-1.175,0.629-1.864s-0.614-1.258-1.271-1.501l-5.316-1.965   l3.146-4.715c0.389-0.583,0.444-1.327,0.146-1.962s-0.907-1.066-1.605-1.138l-5.638-0.581l1.841-5.254   c0.096-0.233,0.148-0.489,0.148-0.756c0-1.101-0.886-1.994-1.986-2c-0.006,0-0.011,0-0.017,0c-0.025,0-0.049,0-0.074,0.001   c-0.087,0.003-0.173,0.012-0.258,0.026l-5.57,0.834l0.477-5.544c0.012-0.09,0.019-0.181,0.019-0.274c0-1.104-0.892-1.999-1.995-2   c-0.003,0-0.005,0-0.008,0c-0.022,0-0.044,0-0.066,0.001c-0.268,0.009-0.522,0.07-0.753,0.174L65.76,17.13l-0.934-5.59   c-0.116-0.691-0.585-1.272-1.236-1.53c-0.238-0.094-0.488-0.141-0.736-0.141c-0.432,0-0.859,0.14-1.213,0.409l-4.508,3.436   l-2.295-5.182c-0.284-0.641-0.883-1.086-1.578-1.174c-0.084-0.011-0.168-0.016-0.251-0.016c-0.607,0-1.188,0.277-1.57,0.761   l-3.512,4.449l-3.512-4.449c-0.382-0.484-0.962-0.761-1.57-0.761c-0.083,0-0.167,0.005-0.251,0.016   c-0.695,0.088-1.294,0.533-1.578,1.174l-2.295,5.182l-4.508-3.436c-0.354-0.27-0.781-0.409-1.213-0.409   c-0.248,0-0.498,0.046-0.736,0.141c-0.652,0.258-1.121,0.839-1.236,1.53l-0.934,5.59l-5.221-2.207   c-0.25-0.106-0.515-0.158-0.779-0.158c-0.416,0-0.829,0.13-1.176,0.382c-0.567,0.412-0.877,1.091-0.817,1.789l0.486,5.647   l-5.605-0.839c-0.099-0.015-0.198-0.022-0.296-0.022c-0.591,0-1.158,0.262-1.541,0.725c-0.447,0.54-0.578,1.275-0.346,1.936   l1.875,5.349l-5.638,0.581c-0.697,0.072-1.306,0.504-1.605,1.138S9.19,32.83,9.579,33.413l3.146,4.715l-5.316,1.965   c-0.658,0.243-1.14,0.813-1.271,1.501s0.107,1.396,0.629,1.864l4.22,3.784l-4.661,3.225c-0.576,0.399-0.902,1.07-0.858,1.77   c0.044,0.7,0.451,1.325,1.073,1.649l5.028,2.616l-3.712,4.283c-0.459,0.53-0.607,1.261-0.391,1.928   c0.217,0.667,0.766,1.171,1.449,1.33l5.521,1.283l-2.53,5.072c-0.313,0.627-0.275,1.373,0.101,1.964   c0.367,0.579,1.005,0.928,1.689,0.928c0.015,0,0.031,0,0.046,0l5.666-0.13l-1.189,5.542c-0.147,0.685,0.075,1.398,0.586,1.878   c0.376,0.353,0.867,0.542,1.369,0.542c0.181,0,0.363-0.025,0.542-0.075l5.456-1.535l0.226,5.663   c0.028,0.701,0.421,1.335,1.035,1.673c0.3,0.165,0.632,0.247,0.963,0.247c0.347,0,0.693-0.09,1.004-0.27l4.903-2.844l1.627,5.429   c0.201,0.672,0.739,1.189,1.418,1.363c0.165,0.042,0.332,0.063,0.497,0.063c0.518,0,1.023-0.202,1.402-0.574l4.042-3.974   l2.926,4.854c0.362,0.6,1.012,0.967,1.713,0.967c0.701,0,1.351-0.367,1.713-0.967l2.926-4.854l4.042,3.974   c0.379,0.372,0.884,0.574,1.402,0.574c0.166,0,0.333-0.021,0.497-0.063c0.679-0.174,1.217-0.691,1.418-1.363l1.627-5.429   l4.903,2.844c0.31,0.18,0.657,0.27,1.003,0.27c0.332,0,0.663-0.082,0.964-0.247c0.614-0.338,1.007-0.972,1.035-1.673l0.226-5.663   l5.456,1.535c0.179,0.05,0.361,0.075,0.542,0.075c0.502,0,0.993-0.189,1.369-0.542c0.511-0.48,0.734-1.192,0.586-1.878   l-1.189-5.542l5.666,0.13c0.015,0,0.031,0,0.046,0c0.684,0,1.321-0.349,1.688-0.928c0.376-0.592,0.414-1.337,0.101-1.964   l-2.53-5.072l5.521-1.283c0.683-0.159,1.233-0.663,1.449-1.33c0.217-0.667,0.068-1.398-0.391-1.928l-3.712-4.283l5.028-2.616   c0.622-0.324,1.029-0.949,1.073-1.649C90.433,51.538,90.107,50.866,89.531,50.467z M81.117,55.897l5.371,6.198L78.5,63.952   l3.661,7.339l-8.199-0.188l1.721,8.019L67.788,76.9l-0.327,8.195l-7.095-4.115l-2.355,7.856l-5.848-5.75l-4.235,7.024l-4.235-7.024   l-5.848,5.75l-2.355-7.856l-7.095,4.115L28.069,76.9l-7.895,2.221l1.721-8.019l-8.199,0.188l3.661-7.339l-7.989-1.857l5.371-6.198   l-7.276-3.785l6.744-4.667l-6.106-5.476l7.693-2.844l-4.552-6.822l8.158-0.841l-2.713-7.74l8.111,1.214l-0.703-8.171l7.554,3.193   l1.352-8.089l6.523,4.972l3.321-7.499l5.081,6.438l5.082-6.438l3.321,7.499l6.523-4.972l1.352,8.089l7.554-3.193l-0.703,8.171   l8.111-1.214l-2.713,7.74l8.158,0.841l-4.552,6.822l7.693,2.844l-6.106,5.476l6.744,4.667L81.117,55.897z"/><path d="M83.702,42.761l-6.911-2.554l4.09-6.127l-7.328-0.756l2.437-6.952l-7.286,1.09l0.632-7.339l-6.785,2.868l-1.215-7.266   l-5.859,4.466l-2.982-6.736l-4.564,5.783l-4.564-5.783l-2.983,6.736l-5.859-4.466l-1.214,7.266l-6.785-2.868l0.631,7.339   l-7.286-1.09l2.437,6.952l-7.328,0.756l4.089,6.127l-6.91,2.554l5.484,4.918l-6.058,4.192l6.536,3.399l-4.825,5.567l7.175,1.668   L17.179,69.1l7.365-0.17l-1.546,7.203l7.091-1.995l0.293,7.361l6.373-3.696l2.115,7.056l5.253-5.164l3.804,6.31l3.804-6.31   l5.253,5.164l2.115-7.056l6.372,3.696l0.294-7.361l7.092,1.995l-1.546-7.203l7.365,0.17l-3.289-6.593l7.175-1.668l-4.824-5.567   l6.535-3.399l-6.057-4.192L83.702,42.761z M82.825,51.78l-6.275,3.265l4.633,5.345l-6.89,1.602l3.158,6.329l-7.072-0.162   l1.485,6.916l-6.809-1.915l-0.282,7.066l-6.118-3.548l-2.031,6.774l-5.044-4.959l-3.651,6.058l-3.652-6.058l-5.043,4.959   l-2.031-6.774l-6.118,3.548l-0.282-7.066l-6.809,1.915l1.484-6.916l-7.071,0.162l3.158-6.329l-6.889-1.602l4.632-5.345   l-6.275-3.265l5.816-4.024l-5.266-4.722l6.634-2.453l-3.926-5.883l7.036-0.726l-2.34-6.675l6.995,1.047l-0.605-7.047l6.515,2.754   l1.166-6.976l5.625,4.288l2.864-6.468l4.383,5.552l4.383-5.552l2.863,6.468l5.625-4.288l1.166,6.976l6.516-2.754l-0.606,7.047   l6.995-1.047l-2.339,6.675l7.035,0.726l-3.926,5.883l6.634,2.453l-5.266,4.722L82.825,51.78z"/><rect x="23.538" y="48.226" transform="matrix(0.5177 -0.8556 0.8556 0.5177 -19.4677 64.9188)" width="48.614" height="3"/><path d="M45.595,38.476c0-4.549-3.701-8.25-8.25-8.25s-8.25,3.701-8.25,8.25s3.701,8.25,8.25,8.25S45.595,43.024,45.595,38.476z    M32.095,38.476c0-2.895,2.355-5.25,5.25-5.25s5.25,2.355,5.25,5.25s-2.355,5.25-5.25,5.25S32.095,41.371,32.095,38.476z"/><path d="M58.512,54.226c-4.55,0-8.25,3.701-8.25,8.25s3.701,8.25,8.25,8.25c4.549,0,8.25-3.701,8.25-8.25   S63.061,54.226,58.512,54.226z M58.512,67.726c-2.896,0-5.251-2.355-5.251-5.25s2.355-5.25,5.251-5.25   c2.895,0,5.25,2.355,5.25,5.25S61.406,67.726,58.512,67.726z"/></g></svg>