<?xml version="1.0" encoding="utf-8"?>
<!-- Generated by IcoMoon.io -->
<svg version="1.1" xmlns="http://www.w3.org/2000/svg" xmlns:xlink="http://www.w3.org/1999/xlink" width="1200" height="60" viewBox="0 0 1200 60">
<svg id="icon-noun_570175_cc" width="68" height="60" viewBox="0 0 68 60" x="0" y="0">
<path fill="#c2c2c2" d="M28.15 6.085c-1.244 1.114-2.353 2.331-3.329 3.651-0.236 0.319-0.35 0.64-0.35 0.987 0 0.856 0.694 1.55 1.55 1.55 0.509 0 0.961-0.246 1.244-0.625 0.895-1.21 1.861-2.27 2.925-3.223 0.374-0.304 0.599-0.738 0.599-1.225 0-0.855-0.693-1.548-1.548-1.548-0.425 0-0.811 0.171-1.090 0.449z"></path>
<path fill="#c2c2c2" d="M32.981 6.054c0.003 0 0.007 0 0.011 0 0.281 0 0.544-0.075 0.771-0.205 1.133-0.665 2.454-1.263 3.84-1.719 0.827-0.215 1.322-0.822 1.322-1.545 0-0.855-0.693-1.548-1.548-1.548-0.206 0-0.402 0.040-0.581 0.113-1.77 0.563-3.307 1.25-4.749 2.086-0.358 0.21-0.671 0.712-0.671 1.286 0 0.855 0.693 1.548 1.548 1.548 0.004 0 0.008 0 0.011-0z"></path>
<path fill="#c2c2c2" d="M20.129 24c0 0.005 0 0.012 0 0.018 0 1.715 0.18 3.388 0.523 5 0.121 0.555 0.744 1.082 1.489 1.082 0.011 0 0.022-0 0.033-0h0.308c0.712-0.149 1.239-0.772 1.239-1.517 0-0.11-0.011-0.217-0.033-0.32-0.292-1.306-0.461-2.819-0.463-4.371 0-0.856-0.693-1.55-1.548-1.55v0c-0.001 0-0.002 0-0.004 0-0.855 0-1.548 0.693-1.548 1.548 0 0.038 0.001 0.076 0.004 0.113z"></path>
<path fill="#c2c2c2" d="M22.188 20.779c0.010 0 0.022 0 0.034 0 0.74 0 1.359-0.519 1.512-1.213 0.349-1.592 0.818-2.978 1.418-4.291 0.059-0.078 0.125-0.327 0.125-0.591 0-0.855-0.693-1.548-1.548-1.548-0.658 0-1.221 0.411-1.445 0.99-0.626 1.369-1.159 2.963-1.522 4.62-0.052 0.259-0.065 0.372-0.065 0.488 0 0.741 0.521 1.361 1.217 1.513z"></path>
<path fill="#c2c2c2" d="M63.252 15.577c0.54 1.188 0.999 2.581 1.307 4.029 0.173 0.848 0.796 1.375 1.541 1.375 0.011 0 0.022-0 0.033-0h0.308c0.712-0.149 1.239-0.772 1.239-1.517 0-0.11-0.011-0.217-0.033-0.32-0.387-1.811-0.921-3.41-1.608-4.925-0.186-0.398-0.727-0.772-1.356-0.772-0.856 0-1.549 0.694-1.549 1.549 0 0.227 0.049 0.443 0.137 0.637z"></path>
<path fill="#c2c2c2" d="M42.023 3.205c0.655-0.072 1.414-0.113 2.183-0.113s1.528 0.041 2.276 0.121l0.077-0.008c0.025 0.001 0.055 0.002 0.085 0.002 0.856 0 1.551-0.694 1.551-1.551 0-0.826-0.647-1.502-1.461-1.548-0.756-0.082-1.629-0.129-2.512-0.129s-1.756 0.047-2.615 0.138c-0.711 0.037-1.357 0.712-1.357 1.537 0 0.055 0.003 0.11 0.009 0.164 0.073 0.787 0.735 1.403 1.542 1.403 0.079 0 0.156-0.006 0.232-0.017z"></path>
<path fill="#c2c2c2" d="M59.737 10.111c0.45 0.502 0.892 1.046 1.306 1.613 0.323 0.48 0.796 0.753 1.333 0.753 0.855 0 1.548-0.693 1.548-1.548 0-0.363-0.125-0.696-0.334-0.96-0.462-0.647-0.988-1.297-1.546-1.917-0.576-0.665-1.157-1.271-1.768-1.846-0.287-0.263-0.654-0.417-1.058-0.417-0.857 0-1.551 0.694-1.551 1.551 0 0.453 0.194 0.861 0.505 1.145 0.551 0.514 1.061 1.045 1.543 1.601z"></path>
<path fill="#c2c2c2" d="M50.663 4.15c1.533 0.509 2.854 1.117 4.092 1.849 0.111 0.058 0.358 0.123 0.621 0.123 0.855 0 1.548-0.693 1.548-1.548 0-0.547-0.284-1.028-0.712-1.303-1.333-0.786-2.87-1.483-4.482-2.015-0.329-0.109-0.512-0.144-0.705-0.144-0.855 0-1.548 0.693-1.548 1.548 0 0.704 0.47 1.298 1.113 1.486z"></path>
<path fill="#c2c2c2" d="M33.569 42.054c-1.329-0.785-2.479-1.639-3.531-2.6-0.26-0.233-0.627-0.385-1.029-0.385-0.866 0-1.568 0.702-1.568 1.568 0 0.464 0.201 0.881 0.521 1.168 1.192 1.091 2.515 2.074 3.932 2.914 0.319 0.172 0.566 0.237 0.828 0.237 0.855 0 1.548-0.693 1.548-1.548 0-0.547-0.284-1.028-0.712-1.303z"></path>
<path fill="#c2c2c2" d="M65.234 31.804c-0.186-0.086-0.404-0.135-0.633-0.135-0.624 0-1.161 0.369-1.407 0.9-0.658 1.454-1.392 2.694-2.243 3.844-0.183 0.21-0.319 0.557-0.319 0.935 0 0.855 0.693 1.548 1.548 1.548 0.545 0 1.024-0.281 1.3-0.707 0.933-1.261 1.776-2.684 2.466-4.192 0.147-0.335 0.197-0.553 0.197-0.783 0-0.624-0.369-1.161-0.9-1.407z"></path>
<path fill="#c2c2c2" d="M41.806 44.779c-1.592-0.18-3.039-0.507-4.423-0.973-0.010-0.017-0.194-0.052-0.386-0.052-0.855 0-1.548 0.693-1.548 1.548 0 0.704 0.47 1.298 1.113 1.486 1.423 0.487 3.080 0.863 4.791 1.061l0.283 0.011c0.025 0.001 0.055 0.002 0.085 0.002 0.856 0 1.551-0.694 1.551-1.551 0-0.826-0.647-1.502-1.461-1.548z"></path>
<path fill="#c2c2c2" d="M58.018 39.623c-1.043 0.934-2.204 1.779-3.445 2.501-0.57 0.327-0.88 0.828-0.88 1.401 0 0.858 0.696 1.554 1.554 1.554 0.285 0 0.552-0.077 0.782-0.211 1.551-0.897 2.9-1.881 4.134-2.989l-1.044-1.141 1.037 1.146c0.303-0.283 0.491-0.685 0.491-1.131 0-0.399-0.151-0.763-0.399-1.038-0.284-0.32-0.698-0.521-1.158-0.521-0.415 0-0.793 0.164-1.071 0.43z"></path>
<path fill="#c2c2c2" d="M66.581 22.545v0c-0.855 0-1.548 0.693-1.548 1.548-0.004 1.543-0.173 3.045-0.49 4.491 0.003-0.041-0.009 0.072-0.009 0.188 0 0.741 0.521 1.361 1.217 1.513l0.335 0.002c0.010 0 0.022 0 0.034 0 0.74 0 1.359-0.519 1.512-1.213 0.317-1.473 0.498-3.153 0.498-4.876 0-0.037-0-0.074-0-0.111 0-0.849-0.693-1.543-1.548-1.543z"></path>
<path fill="#c2c2c2" d="M50.462 43.928c-1.238 0.411-2.688 0.722-4.185 0.875-0.911 0.050-1.562 0.727-1.562 1.556 0 0.856 0.694 1.55 1.55 1.55 0.027 0 0.054-0.001 0.081-0.002l0.105 0c1.82-0.181 3.485-0.536 5.077-1.054 0.463-0.159 0.911-0.743 0.911-1.431 0-0.857-0.695-1.552-1.552-1.552-0.169 0-0.331 0.027-0.483 0.077z"></path>
<path fill="#c2c2c2" d="M24.635 38.013c0.281 0.421 0.754 0.694 1.291 0.694 0.855 0 1.548-0.693 1.548-1.548 0-0.363-0.125-0.696-0.334-0.96-0.797-1.093-1.522-2.34-2.113-3.659-0.313-0.642-0.835-0.986-1.437-0.986-0.855 0-1.548 0.693-1.548 1.548 0 0.196 0.036 0.383 0.103 0.555 0.737 1.659 1.57 3.094 2.537 4.425z"></path>
<path fill="#c2c2c2" d="M26.168 44.795c-0.643 0.069-1.388 0.108-2.143 0.108-0.009 0-0.018 0-0.027 0-11.533-0.013-20.879-9.367-20.879-20.903 0-11.545 9.359-20.903 20.903-20.903 1.267 0 2.507 0.113 3.711 0.328-0.048-0.005 0.043 0.003 0.136 0.003 0.867 0 1.571-0.703 1.571-1.571 0-0.774-0.561-1.418-1.298-1.547-1.161-0.197-2.488-0.309-3.841-0.309-13.255 0-24 10.745-24 24 0 13.148 10.573 23.827 23.681 23.998 0.027 0 0.040 0 0.052 0 0.865 0 1.72-0.045 2.562-0.133 0.682-0.076 1.289-0.737 1.289-1.539 0-0.86-0.697-1.557-1.557-1.557-0.057 0-0.114 0.003-0.169 0.009z"></path>
<path fill="#c2c2c2" d="M39.128 9.585c3.57 3.743 5.766 8.823 5.766 14.416 0 5.955-2.49 11.328-6.485 15.135-0.305 0.291-0.49 0.689-0.49 1.131 0 0.856 0.694 1.55 1.55 1.55 0.414 0 0.791-0.163 1.069-0.428 4.597-4.38 7.457-10.55 7.457-17.388 0-6.422-2.522-12.255-6.63-16.562-0.274-0.287-0.672-0.472-1.114-0.472-0.856 0-1.55 0.694-1.55 1.55 0 0.414 0.163 0.791 0.428 1.069z"></path>
<path fill="#c2c2c2" d="M31.293 18.132l5.419-5.419c0.231-0.269 0.372-0.622 0.372-1.007 0-0.855-0.693-1.548-1.548-1.548-0.386 0-0.738 0.141-1.009 0.374l-5.417 5.418c-0.332 0.286-0.541 0.706-0.541 1.176 0 0.855 0.693 1.548 1.548 1.548 0.47 0 0.89-0.209 1.174-0.539z"></path>
<path fill="#c2c2c2" d="M39.809 28.583c-0.28-0.278-0.666-0.45-1.092-0.45s-0.812 0.172-1.092 0.45l-5.435 5.481c-0.332 0.286-0.541 0.706-0.541 1.176 0 0.855 0.693 1.548 1.548 1.548 0.47 0 0.89-0.209 1.174-0.539l5.421-5.421c0.302-0.283 0.49-0.685 0.49-1.13 0-0.438-0.182-0.833-0.474-1.115z"></path>
<path fill="#c2c2c2" d="M28.32 28.97c0.28 0.278 0.666 0.45 1.092 0.45s0.812-0.172 1.092-0.45l9.755-9.677c0.289-0.289 0.468-0.689 0.468-1.13 0-0.883-0.716-1.598-1.598-1.598-0.441 0-0.841 0.179-1.13 0.468l-9.677 9.677c-0.302 0.283-0.49 0.685-0.49 1.13s0.188 0.847 0.489 1.13z"></path>
</svg>
</svg>
