<svg xmlns="http://www.w3.org/2000/svg" xmlns:xlink="http://www.w3.org/1999/xlink" version="1.1" x="0px" y="0px" viewBox="0 0 91 113.75" style="enable-background:new 0 0 91 91;" xml:space="preserve"><g fill="#FF8F14"><path d="M79.3,79.2c-0.1,0-0.2-0.1-0.3-0.1c-0.5-0.1-1.1,0.1-1.4,0.4c-0.3,0.3-0.5,0.7-0.5,1.1s0.2,0.8,0.5,1.1   c0.1,0.2,0.3,0.3,0.5,0.3c0.2,0.1,0.4,0.1,0.6,0.1c0.2,0,0.4,0,0.6-0.1c0.2-0.1,0.4-0.2,0.5-0.3c0.2-0.2,0.3-0.3,0.3-0.5   c0.1-0.2,0.1-0.4,0.1-0.6c0-0.4-0.2-0.8-0.5-1.1c-0.1-0.1-0.2-0.1-0.2-0.2C79.5,79.3,79.4,79.3,79.3,79.2z"/><path d="M73.3,58.9h13.1v-3.2H73.3V52h-3.2v3.7h-8.5v4.9h-1.9l-7.8-6.9H29.8l-0.2,1.4c0,0.1-0.1,0.8-0.1,0.9c0,1.6,0.5,3.2,1.4,4.6   h-0.7l-5-7.7c-1.7-3.3-5.4-5.9-9.2-4.6l-1.8,0.6c-0.1,0-0.2,0.1-0.3,0.1l-1.6,0.7l0.8,1.4C10.3,50,7,50,4.8,52.3l-1.3,1.3   c-0.1,0.1-0.2,0.2-0.2,0.3l-1.1,1.3l19.6,13.5l29,10.8h10.9v3.3h8.5v6.7H89v-3.2H73.3V58.9z M17,51.3c2.1-0.7,4.4,1.1,5.4,3.2   l2.1,3.2L18.1,54l0.1-0.1l-1.4-2.5L17,51.3z M51.3,76.3L23.3,66L6.9,54.6L7,54.5c1.6-1.6,4.4-1,6.3,0.4l10.9,6.3l4.6,2.7h6.9   c0.1,0,0.3,0,0.4,0l11.3,0v-3.2H35.9c-1.6-0.3-2.9-2.1-3.2-3.7h18l7.8,6.9h3.1v12.5H51.3z M64.8,79.6V58.9h5.3v20.7H64.8z"/><path d="M38.8,50.7c8.6,0,15.6-7,15.6-15.6s-7-15.6-15.6-15.6c-8.6,0-15.6,7-15.6,15.6S30.2,50.7,38.8,50.7z M38.8,22.7   c6.8,0,12.4,5.6,12.4,12.4c0,6.8-5.6,12.4-12.4,12.4c-6.8,0-12.4-5.6-12.4-12.4C26.4,28.3,32,22.7,38.8,22.7z"/><path d="M37.4,44.6v1.5h3.2v-1.5c2.2-0.3,3.8-2.1,3.8-4.4v-2c0-1-0.4-2.4-2.4-3.6l-0.7-0.3l0,0l-3.7-1.4l-0.1,0l0,0l-0.4-0.2   c-0.6-0.4-0.8-0.7-0.8-0.8V30c0-0.7,0.6-1.3,1.3-1.3H40c0.7,0,1.3,0.6,1.3,1.3v0.9h3.2V30c0-2.2-1.7-4.1-3.8-4.4v-1.8h-3.2v1.7   c-2.3,0.1-4.2,2.1-4.2,4.4v1.9c0,0.9,0.4,2.3,2.4,3.6l0.9,0.3l0,0l4,1.5c0.6,0.4,0.8,0.8,0.8,0.9v2c0,0.7-0.6,1.3-1.3,1.3h-2.3   c-0.7,0-1.3-0.6-1.3-1.3v-0.9h-3.2v0.9C33.2,42.5,35.1,44.5,37.4,44.6z"/><rect x="24.5" y="11.6" width="3.2" height="9.5"/><rect x="31.4" y="2.7" width="3.2" height="13.7"/><rect x="38.5" y="10.3" width="3.2" height="6"/><rect x="48.1" y="1.2" width="3.2" height="17.4"/></g></svg>