<svg xmlns="http://www.w3.org/2000/svg" viewBox="0 0 25.929173 25.180395"><path fill="#FB6A4B" d="M11.975 10.213L9.118 12.86a5.82 5.82 0 0 1 .142 3.676.66.66 0 1 1-1.27-.367 4.498 4.498 0 0 0-.264-3.176.66.66 0 0 1 .148-.77l3.2-2.964a.92.92 0 0 0 .028-1.323.926.926 0 0 0-1.252-.055l-5.037 4.27a.66.66 0 1 1-.844-1.008L8.995 6.87a2.254 2.254 0 0 1 3.048.13 2.244 2.244 0 0 1-.07 3.213zM9.917 22.32a.66.66 0 1 0 .66.662.66.66 0 0 0-.66-.662zM7.485 6.244a.664.664 0 0 0 .146-.016 4.252 4.252 0 0 0 3.19-3.18.664.664 0 1 0-1.295-.29A2.91 2.91 0 0 1 7.332 4.95a.66.66 0 0 0 .153 1.294zm15.005 1.8a4.252 4.252 0 0 0-2.794 3.082.662.662 0 1 0 1.29.29A2.91 2.91 0 0 1 22.914 9.3a.663.663 0 0 0-.423-1.257zm.415-3.176a2.91 2.91 0 0 1-1.926-2.116.662.662 0 1 0-1.292.29 4.252 4.252 0 0 0 2.802 3.09.662.662 0 0 0 .415-1.256zM24.278 0H6.234A1.646 1.646 0 0 0 4.59 1.643v3.133L2.67 6.694a5.233 5.233 0 0 0-1.543 3.725v9.524H.66a.66.66 0 0 0-.66.664v3.91a.66.66 0 0 0 1.323 0V21.27h10.935v3.25a.66.66 0 0 0 1.323 0v-3.912a.66.66 0 0 0-.66-.66h-.966v-.644A5.32 5.32 0 0 0 14.1 15.67a.667.667 0 1 0-1.323-.168 4.006 4.006 0 0 1-1.852 2.89.66.66 0 0 0-.294.552v.992H2.45V10.41a3.92 3.92 0 0 1 1.156-2.787l.985-.985V7.94a.66.66 0 0 0 1.323 0V1.65a.32.32 0 0 1 .32-.32h18.053a.32.32 0 0 1 .32.32v10.875a.32.32 0 0 1-.32.32h-12.91a.66.66 0 0 0 0 1.323h12.91a1.646 1.646 0 0 0 1.643-1.643V1.65A1.646 1.646 0 0 0 24.285.01zm-.775 15.24a.66.66 0 0 0-.85.394l-.428 1.156a.32.32 0 0 1-.41.19l-5.593-2.047a.662.662 0 1 0-.455 1.244l5.598 2.045a1.643 1.643 0 0 0 2.117-.98l.42-1.153a.66.66 0 0 0-.4-.85zm-3.424 4.215l-.845.894a.32.32 0 0 1-.225.1.33.33 0 0 1-.23-.088l-3.265-3.077a.662.662 0 1 0-.907.963l3.267 3.077a1.632 1.632 0 0 0 1.127.448h.048a1.632 1.632 0 0 0 1.148-.516l.844-.895a.662.662 0 0 0-.963-.907zm-5.393-10.67a.66.66 0 0 0-.47 1.235 3.14 3.14 0 1 0-1.382-4.834.66.66 0 0 0 1.058.794 1.818 1.818 0 1 1 .794 2.8zm4.456-1.7a.66.66 0 0 0 .66.662h.943a.66.66 0 0 0 0-1.323h-.942a.66.66 0 0 0-.66.662z"/></svg>