<?xml version="1.0" encoding="utf-8"?>
<!-- Generator: Adobe Illustrator 21.1.0, SVG Export Plug-In . SVG Version: 6.00 Build 0)  -->
<svg version="1.1" id="icon" xmlns="http://www.w3.org/2000/svg" xmlns:xlink="http://www.w3.org/1999/xlink" x="0px" y="0px"
	 viewBox="0 0 128 128" style="enable-background:new 0 0 128 128;" xml:space="preserve">
<style type="text/css">
	.st0{fill:#FFFFFF;}
	.st1{fill:none;stroke:#3B434F;stroke-width:2;stroke-miterlimit:10;}
	.st2{fill:#F5F3EF;}
	.st3{fill:#3B434F;}
</style>
<g>
	<path class="st0" d="M106,107.2H22.9c-6.6,0-12-5.4-12-12V50c0-6.6,5.4-12,12-12H106c6.6,0,12,5.4,12,12v45.2
		C118,101.8,112.6,107.2,106,107.2z"/>
	<path class="st0" d="M72.8,41.7H52.9c-5.7,0-10.4-4.7-10.4-10.4v0c0-5.7,4.7-10.4,10.4-10.4h19.9c5.7,0,10.4,4.7,10.4,10.4v0
		C83.3,37,78.6,41.7,72.8,41.7z"/>
	<path class="st1" d="M117.1,95.9c0,6.3-6,11.3-12.3,11.3H22.5c-6.4,0-11.6-5-11.6-11.3v-50c0-6.3,5.3-10.6,11.6-10.6h82.2
		c6.4,0,12.3,4.3,12.3,10.6V95.9z"/>
	<line class="st1" x1="10.9" y1="94.6" x2="116.9" y2="94.6"/>
	<path class="st1" d="M83.8,35.2c0.1,0,0.1-1,0.1-1.5c0-7.2-5.8-12.9-13-12.9H54.7c-7.2,0-13,5.7-13,12.9c0,0.6,0,1.5,0.1,1.5H83.8z
		"/>
	<path class="st2" d="M68.7,78.4H57.8c-4.8,0-8.7-3.9-8.7-8.7v0c0-4.8,3.9-8.7,8.7-8.7h10.9c4.8,0,8.7,3.9,8.7,8.7v0
		C77.4,74.5,73.5,78.4,68.7,78.4z"/>
	<path class="st3" d="M101.7,35.2H25.6c-7.2,0-14.7,3.4-14.7,10.5v11.3c0,7.2,5.7,14.1,12.9,14.1h24.5c0-1.8,0-1.1,0-1.3
		c0-4.9,4-9.5,8.9-9.5h11.3c4.9,0,8.9,4.5,8.9,9.5c0,0.3,0-0.4,0,1.3h26.1c7.2,0,13.6-7,13.6-14.1V45.7
		C117.1,38.6,108.9,35.2,101.7,35.2z"/>
	<path class="st1" d="M77.4,69.4c0,4.9-3.6,9-8.1,9h-13c-4.5,0-8.1-4.1-8.1-9l0,0c0-4.9,3.6-9,8.1-9h13
		C73.8,60.4,77.4,64.5,77.4,69.4L77.4,69.4z"/>
</g>
</svg>
