<?xml version="1.0" encoding="utf-8"?>
<!-- Generator: Adobe Illustrator 21.1.0, SVG Export Plug-In . SVG Version: 6.00 Build 0)  -->
<svg version="1.1" id="Layer_1_1_" xmlns="http://www.w3.org/2000/svg" xmlns:xlink="http://www.w3.org/1999/xlink" x="0px" y="0px"
	 viewBox="0 0 64 64" style="enable-background:new 0 0 64 64;" xml:space="preserve">
<style type="text/css">
	.st0{fill:#FFFFFF;}
	.st1{fill:#3B434F;}
	.st2{fill:#F5F3EF;}
</style>
<g>
	<rect x="1.9" y="10.2" class="st0" width="60.2" height="51.6"/>
	<rect x="5.9" y="1.9" class="st1" width="52" height="27.7"/>
	<rect x="6.6" y="34.6" class="st2" width="13.1" height="13.1"/>
	<rect x="44.5" y="34.5" class="st2" width="13.1" height="13.1"/>
	<path class="st1" d="M60,9h-1V1H5v8H4c-1.7,0-3,1.3-3,3v51h62V12C63,10.3,61.7,9,60,9z M7,3h50v26H7V3z M33,47V35h6v26h-6V49h-2v12
		h-6V35h6v12H33z M61,61H41V33H23v28H3V12c0-0.6,0.4-1,1-1h1v20h54V11h1c0.6,0,1,0.4,1,1V61z"/>
	<path class="st1" d="M5,49h16V33H5V49z M7,42h5v5H7V42z M14,47v-5h5v5H14z M19,40h-5v-5h5V40z M12,35v5H7v-5H12z"/>
	<path class="st1" d="M43,49h16V33H43V49z M45,42h5v5h-5V42z M52,47v-5h5v5H52z M57,40h-5v-5h5V40z M50,35v5h-5v-5H50z"/>
	<rect x="34" y="47" class="st1" width="2" height="2"/>
	<rect x="28" y="47" class="st1" width="2" height="2"/>
	<polygon class="st0" points="9,27 49,27 49,25 11,25 11,7 53,7 53,25 51,25 51,27 55,27 55,5 9,5 	"/>
	<path class="st0" d="M36,15v-1c0-1.7-1.3-3-3-3V9h-2v2c-1.7,0-3,1.3-3,3s1.3,3,3,3h2c0.6,0,1,0.4,1,1s-0.4,1-1,1h-2
		c-0.6,0-1-0.4-1-1v-1h-2v1c0,1.7,1.3,3,3,3v2h2v-2c1.7,0,3-1.3,3-3s-1.3-3-3-3h-2c-0.6,0-1-0.4-1-1s0.4-1,1-1h2c0.6,0,1,0.4,1,1v1
		H36z"/>
	<rect x="38" y="15" class="st0" width="2" height="2"/>
	<rect x="42" y="15" class="st0" width="2" height="2"/>
	<rect x="24" y="15" class="st0" width="2" height="2"/>
	<rect x="20" y="15" class="st0" width="2" height="2"/>
</g>
</svg>
