<svg id="Layer_1" xmlns="http://www.w3.org/2000/svg" viewBox="0 0 128 128"><style>.st0{fill:none;stroke:#3b434f;stroke-miterlimit:10}.st1{fill:#fff}.st2,.st3{fill:#3b434f}.st3{opacity:5.8824e-2;enable-background:new}.st4{fill:#f7fbfb}.st5{fill:#edf1f1}.st6{fill:#9ea0a4}.st7{opacity:.2;fill:#3b434f;enable-background:new}.st8{fill:#3b444f}</style><circle class="st0" cx="82.5" cy="23.7" r="3"/><circle class="st0" cx="69.9" cy="22.7" r="4.2"/><circle class="st0" cx="55.7" cy="27.1" r="4.8"/><path id="body-bg-flat" class="st1" d="M14.7 108s-1.6-14.4 12.5-16h6v-2.8s4.3 1.8 8.6.2l.1 2.6H49s12.3 1.2 11.6 16H14.7z"/><path id="Rounded_Rectangle_13_copy_3" class="st2" d="M60.5 108.3H14.2l.2-3.7c.4-7.3 6.2-12.9 12.8-12.9h6v.7h-5.6c-6.4 0-11.9 5.4-12.3 12.4l-.2 2.6h45.1l-.1-2.6c-.4-7-6-12.4-12.3-12.4h-5.6v-.7h6c6.6 0 12.4 5.6 12.8 12.9l.2 3.7h-.7z"/><path id="neck_copy_7" class="st2" d="M33.7 88.9v4.2c0 2.2 1.8 3.9 3.9 3.9 2.2 0 3.9-1.8 3.9-3.9V89c.2-.1.5-.1.7-.2v4.4c0 2.6-2.1 4.7-4.7 4.7S33 95.7 33 93.2v-4.5c.2.1.5.2.7.2z"/><path id="Rounded_Rectangle_2" class="st2" d="M49.9 100.6l-1.9 4c-.1.2-.3.3-.5.2-.2-.1-.3-.3-.2-.5l1.9-3.9-1.5-2.5c-.1-.2 0-.4.1-.6.2-.1.4 0 .6.1l1.6 2.7c0 .2-.1.4-.1.5z"/><path id="Rounded_Rectangle_2_copy_3" class="st2" d="M25.4 100.6l1.9 4c.1.2.3.3.5.2.2-.1.3-.3.2-.5l-1.9-3.9 1.5-2.5c.1-.2 0-.4-.2-.6-.2-.1-.4 0-.6.1l-1.6 2.7c.1.2.1.4.2.5z"/><path id="Rectangle_24" class="st2" d="M33 91.5h.7V108H33V91.5z"/><path id="Rectangle_24_copy" class="st2" d="M41.6 91.6h.7v16.5h-.7V91.6z"/><path id="_x32__copy_5" class="st1" d="M37.8 46.3c8.5 0 15.1 7.9 14.9 17.4l-.2 10.1c-.2 8.9-6.8 16-14.7 16s-14.5-7.1-14.7-16l-.2-10.1c-.2-9.5 6.5-17.4 14.9-17.4z"/><path id="_x32__line" class="st2" d="M53.4 63.4l-.2 10.5c-.2 9.3-7.1 16.7-15.4 16.7s-15.2-7.4-15.4-16.7l-.2-10.5C22 53.5 29 45.3 37.8 45.3s15.8 8.2 15.6 18.1zm-15.6-17c-8.3 0-14.9 7.8-14.7 17.3l.2 10c.2 8.9 6.7 15.9 14.5 15.9s14.3-7 14.5-15.9l.2-10c.2-9.5-6.4-17.3-14.7-17.3z"/><path id="_x31__copy_4" class="st3" d="M53 65.1l-.7 11.1s-3 12.9-14.7 14.4h-.2c-11.7-1.5-14.7-14.4-14.7-14.4L22 65.1c3 13.4 5.6 14.3 5.6 14.3-.5-4.1 3.7-3.7 3.7-3.7 2.6.4 4.6.6 6.2.7 1.6-.1 3.6-.3 6.2-.7 0 0 4.2-.4 3.7 3.7 0 0 2.6-.8 5.6-14.3zm-7.6 15.7c-.2-2.4-1.6-2.2-1.6-2.2-2.6.8-4.6 1.2-6.2 1.4-1.6-.2-3.6-.6-6.1-1.4 0 0-1.4-.2-1.6 2.2 0 0-.6 2.4 1.4 3.4l2.4 2.6s1.7.5 1.6-1.5c0 0-.2-1.5.8-1.8h3c1 .3.8 1.8.8 1.8 0 2 1.6 1.5 1.6 1.5l2.5-2.6c2-1 1.4-3.4 1.4-3.4z"/><path id="Rounded_Rectangle_3" class="st2" d="M36.2 84.4h3.3c.2 0 .3.1.3.3s-.2.3-.4.3h-3.3c-.2 0-.3-.1-.3-.3s.2-.3.4-.3z"/><path id="_x32_" class="st2" d="M33.3 81.2l.4-.5c1.2.7 2.7 1.1 4.2 1.1 1.6 0 3-.4 4.3-1.1l.4.5c-1.3.8-2.9 1.2-4.6 1.2-1.8 0-3.4-.5-4.7-1.2z"/><path id="Shape_11_copy" class="st4" d="M22.2 64.9s-.2-.1-.5-.2c-.2 0-.3-.1-.6-.1h-.4c-.1 0-.2 0-.4.1-.5.1-1 .5-1.3 1.2-.2.4-.3.8-.3 1.4v.9c0 .3.1.7.1 1.1 0 0-.1 1.2.4 2.7.4 1.4 1.4 3.1 3.3 3.6-.1-3.5-.1-7.1-.3-10.7z"/><path id="Shape_3" class="st2" d="M22.4 65.1s-3.2-1-3.1 2.3c0 0 .5 4.8.7 5.2 0 0 1.3 2.8 3.3 2.9 2 .1 0 0 0 0v.9s-3.7-.5-4.4-4.7l-.6-3.8s-.4-5.1 3.8-3.8c4.1 1.3 0 0 0 0l.3 1"/><path id="Shape_4" class="st2" d="M21.3 71.7s-.2.1-.3.1-.3-.1-.3-.1l-.3-3.3s.5-1.6 2.4-.8v1s-1.7-.6-1.7.1.2 3 .2 3z"/><path id="Shape_11_copy_x5F_1" class="st4" d="M53.4 64.9s.2-.1.5-.2c.2 0 .4-.1.6-.1h.4c.1 0 .2 0 .4.1.5.1 1 .5 1.3 1.2.2.4.3.8.3 1.4v.9c0 .3-.1.7-.1 1.1 0 0 .1 1.2-.4 2.7-.4 1.4-1.4 3.1-3.3 3.6 0-3.5.1-7.1.3-10.7z"/><path id="Shape_3_x5F_1" class="st2" d="M53.2 65.1s3.2-1 3.1 2.3c0 0-.5 4.8-.7 5.2 0 0-1.3 2.8-3.4 2.9-2 .1 0 0 0 0v.9s3.7-.5 4.4-4.7l.6-3.8s.4-5.1-3.8-3.8c-4.1 1.3 0 0 0 0l-.2 1"/><path id="Shape_4_x5F_1" class="st2" d="M54.2 71.7s.2.1.3.1c.2 0 .3-.1.3-.1l.3-3.3s-.5-1.6-2.4-.8v1s1.7-.6 1.7.1-.2 3-.2 3z"/><path id="new_vector_shape_done" class="st2" d="M39.1 71.5h.2c.5.7.7 1.7 1 2.6.1.3 0 .8-.1 1-.3.7-1.1.7-1.7 1-.2.1-.3.2-.5.3-.2-.1-.3-.2-.4-.4-.2-.3.1-.4.2-.5.3-.2 1.4-.4 1.5-.7.2-.2.1-.7 0-.9-.1-.5-.2-.9-.4-1.3-.1-.3-.3-.6-.2-.9 0-.1.3-.2.4-.2z"/><path id="eye" class="st2" d="M30.3 65.7c.8 0 1.4.6 1.4 1.4s-.6 1.4-1.4 1.4S29 67.8 29 67s.6-1.3 1.3-1.3z"/><path id="eye_1" class="st2" d="M45.4 65.7c.8 0 1.4.6 1.4 1.4s-.6 1.4-1.4 1.4c-.8 0-1.4-.6-1.4-1.4s.7-1.4 1.4-1.4z"/><path id="Ellipse_3" class="st5" d="M46 70.7c.9 0 1.7.8 1.7 1.7s-.7 1.7-1.7 1.7c-.9 0-1.7-.8-1.7-1.7s.8-1.7 1.7-1.7z"/><path id="Ellipse_3_copy" class="st5" d="M29.6 70.7c.9 0 1.7.8 1.7 1.7s-.8 1.7-1.7 1.7c-.9 0-1.7-.8-1.7-1.7s.7-1.7 1.7-1.7z"/><path id="Shape_1_copy_5" class="st2" d="M51.4 64.5v5c0 1.2-1.2 3.1-3.2 3.3h-6.1c-2.6 0-3.1-3.1-3.1-3.1v-3.4h-2.4v3.4s-.5 3.1-3.1 3.1h-6.1c-2-.1-3.2-2-3.2-3.3v-5H22v-1.4h12.6s1.9.3 1.9 1.6H39c0-1.3 1.9-1.6 1.9-1.6h12.6v1.4h-2.1zm-16.2.6c0-.5-.5-.5-.5-.5h-9.1v4.8c0 1.5 2 2 2 2h5.6c1.9 0 2-2 2-2v-4.3zm14.8-.5h-9.1s-.5.1-.5.5v4.2s.1 2 2 2H48s2-.6 2-2v-4.7zm-1.9 8.1zm-20.7 0h.1-.1z"/><path id="Shape_6_copy_3" class="st6" d="M22.6 64.3s.5-8.2 5.6-11.8c0 0 7.3 5 18.8 0 0 0 5.1 2.3 5.8 11.8h.3s1.5-10.9-2.3-15.2c0 0-.9-3.3-5.8-5.7l-1.8 1.1S42 43 38.8 41.2c0 0-2.3 1-3.5 2.9l-1.9-1.2s-2.7 1.2-4.2 3.4l-2.9.4-1.5 2.7s-3.6 2.9-2.4 14.7l.2.2z"/><path id="Shape_6_copy" class="st2" d="M53.6 64.3l-1.3-.1C51.6 54.7 47 53 47 53c-11.5 5-18.8 0-18.8 0-4.4 3.8-5.1 11.4-5.1 11.4l-1.2-.4c-1.1-11.8 2.4-14.9 2.4-14.9l1.6-3 3-.4c1.6-2.2 4.4-3.5 4.4-3.5l1.8 1.2c1.2-1.8 3.7-2.7 3.7-2.7 3.2 1.8 4.3 3.2 4.3 3.2l1.8-1c4.9 2.4 6.3 6.2 6.3 6.2 3.9 4.3 2.4 15.2 2.4 15.2zm-3.2-15s-.6-3-5.5-5.4L43.1 45s-1.2-1.5-4.3-3.3c0 0-2.1 1.1-3.3 2.9l-2-1.3s-2.5 1.1-4 3.3l-2.7.4-1.4 2.6s-3 2.3-2.7 11.4l.1-.1s.9-5.7 5.6-9.2c0 0 7.5 5.1 19 .1 0 0 4.2 2 5.7 9.1-.2.2.7-7.1-2.7-11.6z"/><path id="Shape_34" class="st2" d="M35.7 99.6l1.9-2.1 2.1 2.1-1.1 1.1 1.8 7.2H35l1.9-7.2-1.2-1.1z"/><path id="Rectangle_24_copy_4" class="st2" d="M40 108l-1.9-7.2.4-.1.3-.3 2 7.6H40zm-5.5-.1l2-7.5.1.1.4.3h.1l-1.9 7.1h-.7z"/><path id="Ellipse_6" class="st2" d="M42.3 101.6l-.5.5-2.1-2.1c-.4.6-1.1 1.1-1.9 1.1-.8 0-1.6-.5-1.9-1.1l-2.1 2.1-.5-.5 4.2-4.2.3-.3.3.3 4.2 4.2zm-6-2c.3.6.8.9 1.5.9.6 0 1.2-.4 1.5-.9l-1.5-1.5-1.5 1.5z"/><path id="new_x5F_vector_x5F_shape_x5F_done_copy" class="st7" d="M38 44.3c.1.1.1.1 0 .2 0 .1-.1.3-.1.4 0 .2-.1.4-.1.6v1.7c0 .1 0 .2.1.2 0 .1.1.3.1.4 0 .1.1.2.1.3.1.2.1.3.2.5 0 .1.1.2.1.3.1.3.3.5.4.8 0 .1.1.2.1.2 0 .1.1.1.1.2 0 0 0 .1.1.1 0 .1.1.1.1.2s.1.1.1.2.1.1.1.2c.1.1.1.2.2.3.1.1.2.2.2.3.2.2.3.4.5.6 0 .1.1.1.2.2l.1.1v.2s0 .1-.1.1l-.1.1-.1.1c-.1 0-.1 0-.2-.1l-.2-.2-.3-.3-.1-.1c-.1-.1-.1-.2-.2-.2-.2-.2-.3-.4-.5-.6l-.1-.1c-.2-.3-.5-.7-.6-1 0-.1-.1-.2-.1-.3-.1-.3-.2-.5-.4-.8V49c-.1-.2-.1-.3-.2-.5s-.1-.3-.1-.5v-.2c0-.1 0-.2-.1-.3v-1.6c0-.3.1-.7.2-1 0-.1.1-.2.1-.4 0-.1.1-.2.1-.3v-.1s0-.1.1-.1c.2.3.2.2.3.3zm-3.2 2.3c.1.1.1.1.1.2v.7c0 .1 0 .2.1.3 0 .1.1.2.1.4.1.2.1.3.2.5 0 .1.1.2.1.2 0 .1 0 .1.1.2.1.2.2.5.4.7l.3.6c0 .1.1.1.1.2.1.1.2.3.3.4.1.1.2.2.3.4v.1c0 .1.1.1.2.2l.1.1c0 .1.1.2.1.3 0 .1-.2.2-.3.3h-.1c-.1 0-.1-.1-.1-.1 0-.1-.1-.1-.1-.1-.1-.1-.2-.2-.2-.3-.2-.2-.3-.4-.5-.6-.3-.5-.6-1-.8-1.5-.1-.2-.2-.4-.2-.6 0-.1 0-.2-.1-.2 0-.1 0-.2-.1-.3v-1.8s0-.1.1-.1c-.2-.2-.2-.2-.1-.2zm-2.4.5c.1.1.1.1.1.2v1.3c.1.2.1.3.1.5.1.3.3.7.5 1 .1.1.1.2.2.3l.1.1c.1.1.2.2.2.4.1.2.2.3.4.5 0 .1.1.1.1.2l.1.1.3.3c0 .1.1.1.1.2l.2.2.2.2.1.1c.1.1.2.2.3.2 0 0 .1 0 .1.1l.1.1s.1.1.2.1l.2.2s.1 0 .1.1h.1l.1.1s.1 0 .1.1c0 0 .1 0 .1.1.1 0 .1.1.2.1.1.1.3.2.4.3.1 0 .1.1.2.1v.4s0 .1-.1.1l-.1.1h-.3c-.1 0-.2-.1-.3-.2 0 0-.1 0-.1-.1 0 0-.1 0-.1-.1 0 0-.1 0-.1-.1 0 0-.1 0-.1-.1l-.1-.1-.1-.1-.1-.1h-.1l-.1-.1h-.1l-.1-.1-.1-.1s-.1 0-.1-.1c-.1-.1-.2-.1-.2-.2h-.1l-.3-.3-.1-.1-.2-.2-.1-.1c-.1-.1-.2-.3-.3-.4-.2-.2-.4-.5-.5-.7 0-.1-.1-.1-.1-.2-.1-.1-.1-.2-.2-.3-.1-.2-.2-.3-.2-.5-.1-.1-.1-.2-.1-.4 0-.1-.1-.2-.1-.3 0-.1-.1-.2-.1-.3 0-.1 0-.2-.1-.3v-.1c0-.1 0-.2-.1-.3-.1-.4-.1-.8 0-1.2v-.3s0-.1.1-.1c-.3-.2-.2-.2-.1-.2-.1 0-.1 0 0 0z"/><path id="Shape_16" class="st8" d="M95.1 41.3c-1.1-1-.5-3.6-.5-3.6s0-.2.2-.5c.6-1.8 3.4-7.6 11.4-4.3l-2 .5s6.5.4 6.5 10.9v24.8s-5 4.4-11.2-2.9C93.4 58.9 95.1 48 95.1 48s1.1-5.7 0-6.7z"/><path id="Rounded_Rectangle_7" class="st8" d="M90.9 39.5c7.4 0 13.4 6 13.4 13.4v2.8c0 7.4-6 13.4-13.4 13.4s-13.4-6-13.4-13.4v-2.8c.1-7.4 6.1-13.4 13.4-13.4z"/><path id="body-bg-flat_copy" class="st1" d="M73.6 90.3s-.8-11.2 9.7-12.3H88v-2.2s3.3 1.4 6.7.2l.1 2h5.5s9.5.4 9 12.4l-35.7-.1z"/><path id="Rounded_Rectangle_13" class="st2" d="M109.4 90.7H73.2l.2-2.9c.3-5.7 4.8-10.1 10-10.1h3.9v.6h-3.6c-5 0-9.3 4.2-9.6 9.7l-.1 2h35.3l-.1-2c-.3-5.5-4.7-9.7-9.6-9.7h-4.8v-.6h5.1c5.2 0 9.7 4.4 10 10.1l.2 2.9h-.7z"/><path id="Ellipse_4" class="st2" d="M91.2 84.3c-2.8 0-5.2-2.3-5.2-5.2 0-.5.1-1 .2-1.4h1.4v.6h-1.1c-.1.3-.1.6-.1.9 0 2.6 2.1 4.6 4.6 4.6 2.6 0 4.6-2.1 4.6-4.6 0-.3 0-.6-.1-.9h-1.1v-.6h1.4c.1.5.2.9.2 1.4.3 2.9-2 5.2-4.8 5.2z"/><path id="neck" class="st2" d="M88 75.6v3.3c0 1.7 1.4 3.1 3.1 3.1s3.1-1.4 3.1-3.1v-3.2c.2-.1.4-.1.5-.2v3.4c0 2-1.6 3.6-3.6 3.6s-3.6-1.6-3.6-3.6v-3.5c.1.1.3.1.5.2z"/><path id="_x31__copy_4_1_" class="st1" d="M91.2 43.4c6.7 0 11.9 5.9 11.6 12.7l-.4 9.2c-1.1 6.2-5.3 10.7-11.2 11.4-5.6-.7-10-5.3-11.2-11.5l-.4-9.2c-.2-6.7 4.9-12.6 11.6-12.6z"/><path id="_x31__line" class="st2" d="M103.5 55.6l-.4 9.6c-1.1 6.5-5.7 11.2-11.9 11.9-6-.6-10.7-5.4-12-11.9l-.4-9.6c-.3-7.1 5.2-13.2 12.3-13.2 7.3 0 12.7 6.2 12.4 13.2zM91.2 43.1c-6.7 0-11.9 5.9-11.6 12.7L80 65c1.2 6.2 5.6 10.8 11.3 11.4 5.8-.6 10.1-5.1 11.2-11.4l.4-9.2c.2-6.7-5-12.7-11.7-12.7z"/><path id="usta" class="st2" d="M97 68.5c-1 .8-3.2 1.6-5.7 1.6s-4.7-.8-5.7-1.6c0 0-.1-.3 0-.4.2-.1.4-.1.4-.1 1 .8 2.7 1.5 5.3 1.5 2.5 0 4.3-.7 5.3-1.5 0 0 .2-.1.4 0 .1.2 0 .5 0 .5z"/><path id="_x2D_" class="st2" d="M89.5 71.4h3.4v.6h-3.4v-.6z"/><path id="Shape_11_copy_1_" class="st1" d="M79 56.8s-.1-.1-.4-.2c-.1 0-.3-.1-.4-.1H78c-.1 0-.2 0-.3.1-.4.1-.8.4-1 1-.1.3-.2.6-.2 1.1v.8c0 .3.1.6.1.9 0 0-.1 1 .3 2.1.3 1.1 1.1 2.4 2.6 2.8-.4-2.9-.4-5.7-.5-8.5z"/><path id="Shape_3_1_" class="st2" d="M79.1 56.9s-2.5-.8-2.4 1.8c0 0 .4 3.7.5 4.1 0 0 1 2.2 2.6 2.3 1.6.1 0 0 0 0v.7s-2.9-.4-3.4-3.7l-.4-3s-.3-4 3-3c3.2 1 0 0 0 0l.1.8"/><path id="Shape_4_1_" class="st2" d="M78.3 62.1s-.1.1-.3.1c-.1 0-.3-.1-.3-.1l-.3-2.6s.4-1.3 1.9-.6v.7s-1.3-.5-1.3.1c.2.6.3 2.4.3 2.4z"/><path id="Shape_11_copy_x5F_1_1_" class="st1" d="M103.5 56.8s.1-.1.4-.2c.1 0 .3-.1.4-.1h.2c.1 0 .2 0 .3.1.4.1.8.4 1 1 .1.3.2.6.2 1.1v.8c0 .3-.1.6-.1.9 0 0 .1 1-.3 2.1-.3 1.1-1.1 2.4-2.6 2.8.3-2.9.4-5.7.5-8.5z"/><path id="Shape_3_x5F_1_1_" class="st2" d="M103.2 56.9s2.5-.8 2.4 1.8c0 0-.4 3.7-.5 4.1 0 0-1 2.2-2.6 2.3-1.6.1 0 0 0 0v.7s2.9-.4 3.4-3.7l.4-3s.3-4-3-3c-3.2 1 0 0 0 0l-.1.8"/><path id="Shape_4_x5F_1_1_" class="st2" d="M104.1 62.1s.1.1.3.1.3-.1.3-.1l.3-2.6s-.4-1.3-1.9-.6v.7s1.3-.5 1.3.1c-.2.6-.3 2.4-.3 2.4z"/><path id="new_vector_shape_done_1_" class="st2" d="M92.2 61.9h.2c.4.5.5 1.3.7 2 .1.2 0 .6-.1.7-.2.6-.8.5-1.4.8-.1.1-.2.2-.4.2-.1-.1-.3-.1-.3-.3-.1-.2 0-.3.2-.4.3-.1 1.1-.3 1.2-.5.1-.1 0-.5 0-.7-.1-.4-.2-.7-.3-1-.1-.2-.3-.5-.2-.7.2 0 .3 0 .4-.1z"/><path id="Rounded_Rectangle_8" class="st2" d="M84.8 57.8h.7c.4 0 .7.3.7.7 0 .4-.3.7-.7.7h-.7c-.4 0-.7-.3-.7-.7 0-.3.3-.7.7-.7z"/><path id="Rounded_Rectangle_8_copy" class="st2" d="M97 57.8h.7c.4 0 .7.3.7.7 0 .4-.3.7-.7.7H97c-.4 0-.7-.3-.7-.7-.1-.3.2-.7.7-.7z"/><path id="Ellipse_3_1_" class="st5" d="M97.6 61.3c.7 0 1.3.6 1.3 1.3 0 .7-.6 1.3-1.3 1.3-.7 0-1.3-.6-1.3-1.3 0-.7.6-1.3 1.3-1.3z"/><path id="Ellipse_3_copy_1_" class="st5" d="M84.8 61.3c.7 0 1.3.6 1.3 1.3 0 .7-.6 1.3-1.3 1.3-.7 0-1.3-.6-1.3-1.3-.1-.7.5-1.3 1.3-1.3z"/><path id="glasses" class="st8" d="M102.8 56.3c-.1.6-.1 1.4-.3 2-.4 2-2.1 3.9-5.1 4.1-3 .2-5.5-1.3-5.6-3.3 0-.3-.1-.7-.1-1.1-.4-.2-.8-.2-1.3 0-.1.4-.1.8-.1 1.1-.1 2.1-2.7 3.5-5.6 3.3-3-.2-4.7-2.1-5.1-4.1-.1-.7-.2-1.4-.3-2h-.4l.1-.8h.1l2.7.2 2.3.2 2.3.2 3.5.3c.2 0 .4.1.5.3.5.2 1 .2 1.5 0 .1-.2.3-.3.5-.3l3.5-.3 2.3-.2 2.3-.2 2.7-.2h.1l.1.8h-.6zm-14 .9l-6.9-.5c-.9-.1-1.2.9-1.3 1.7-.1 1.6 1.7 3.1 4.1 3.3s4.4-1 4.5-2.7c.1-.8.3-1.2-.4-1.8zm12.7 1.2c-.1-.8-.4-1.8-1.3-1.7l-6.9.5c-.7.6-.4 1.1-.4 1.8.1 1.6 2.1 2.8 4.5 2.7 2.4-.2 4.2-1.7 4.1-3.3z"/><path id="Shape_26" class="st2" d="M79.8 48.6l3.9-4.9 3.5-1.6 4.7-.7 5.4.3 7.3 7.6-2 7.1s-.5-3.1-2.9-5.6c-2.3-2.3-3.7-2.9-3.7-2.9s-.9 3.4-6.5 3.3c-10.2-.2-9.7 7-10.1 7.7 0 .1-.1-3-.1-3l.5-7.3z"/></svg>