<svg xmlns="http://www.w3.org/2000/svg" viewBox="0 0 21.695847 16.933592"><path fill="#FB6A4B" overflow="visible" d="M.48 0A.53.53 0 0 0 0 .53v11.64a.53.53 0 0 0 .53.53h12.698a.53.53 0 1 0 0-1.058H1.058V4.234h15.874v3.704a.53.53 0 1 0 1.058 0V.53a.53.53 0 0 0-.53-.53H.53a.53.53 0 0 0-.05 0zm.578 1.06h15.874v2.116H1.058zm2.38 6.35a1.86 1.86 0 0 0-1.85 1.85 1.86 1.86 0 0 0 1.85 1.853c.29 0 .554-.088.795-.207.24.12.504.207.794.207A1.86 1.86 0 0 0 6.88 9.26a1.86 1.86 0 0 0-1.853-1.85c-.29 0-.553.086-.794.206a1.78 1.78 0 0 0-.794-.207zm0 1.057c.18 0 .332.06.473.165a.53.53 0 0 0 .645 0 .786.786 0 0 1 1.265.628.786.786 0 0 1-1.265.63.53.53 0 0 0-.644 0 .786.786 0 0 1-1.265-.628c0-.446.35-.795.794-.795zm13.998.52a.53.53 0 0 0-.322.133l-2.117 1.852a.53.53 0 0 0 0 .802l2.117 1.852a.53.53 0 1 0 .694-.802l-1.05-.917h3.878a.53.53 0 1 0 0-1.06H16.75l1.058-.925a.53.53 0 0 0-.372-.934zm1.57 3.176a.53.53 0 0 0-.305.934l1.06.926h-3.886a.53.53 0 0 0-.05 0 .53.53 0 1 0 .05 1.06h3.877l-1.05.916a.53.53 0 1 0 .696.8l2.116-1.85a.53.53 0 0 0 0-.803l-2.116-1.852a.53.53 0 0 0-.39-.132z" style="text-indent:0;text-transform:none" color="#000"/></svg>