<svg xmlns="http://www.w3.org/2000/svg" xmlns:xlink="http://www.w3.org/1999/xlink" version="1.1" x="0px" y="0px" viewBox="0 0 100 125" enable-background="new 0 0 100 100" xml:space="preserve"><g fill="#FF8F14"><path d="M61.498,78.473c5.244-2.171,9.744-5.485,13.047-9.614c0.516-0.647,0.41-1.591-0.236-2.108   c-0.646-0.517-1.59-0.411-2.107,0.235c-2.957,3.701-7.043,6.727-11.85,8.716c-0.766,0.316-1.129,1.194-0.813,1.96   C59.855,78.426,60.732,78.79,61.498,78.473z"/><g><circle cx="71.5" cy="46.422" r="2.5"/><path d="M89,44.922h-3.031c-1.232-3.135-2.992-6.058-5.191-8.691l3.248-10.961c0.291-0.979-0.199-2.016-1.141-2.411    c-1.51-0.638-3.102-0.936-4.684-0.935c-3.799,0.01-7.496,1.673-10.428,4.401c-2.055-0.981-4.219-1.815-6.475-2.487    c0.445-1.393,0.689-2.875,0.689-4.416c-0.002-8.009-6.49-14.498-14.5-14.5c-8.008,0.002-14.498,6.491-14.5,14.5    c0,1.643,0.287,3.216,0.791,4.688c-5.256,1.671-9.994,4.232-13.938,7.499c-2.588,2.146-4.828,4.598-6.652,7.288    c-1.211-0.065-2.277-0.488-3.006-1.098c-0.396-0.33-0.695-0.705-0.891-1.091C9.098,36.321,9,35.928,9,35.506c0-1.104-0.896-2-2-2    c-1.105,0-2,0.896-2,2c-0.002,1.073,0.264,2.104,0.727,3.013c0.695,1.367,1.814,2.464,3.158,3.221    c0.66,0.372,1.381,0.662,2.143,0.862c-1.949,3.939-3.039,8.277-3.039,12.82c0,4.677,1.146,9.14,3.205,13.17    s5.029,7.616,8.658,10.625l-1.785,7.22c-0.119,0.478-0.176,0.96-0.176,1.436c0,1.354,0.459,2.638,1.254,3.67    c0.793,1.032,1.943,1.824,3.307,2.159l4.852,1.201c0.479,0.118,0.961,0.176,1.436,0.176c1.354-0.001,2.637-0.46,3.67-1.255    c1.031-0.793,1.822-1.942,2.16-3.303l0.818-3.313c3.969,1.102,8.199,1.713,12.602,1.714c4.4,0,8.637-0.602,12.604-1.703    l0.816,3.301c0.336,1.361,1.127,2.51,2.16,3.304c1.031,0.795,2.314,1.254,3.67,1.255c0.475,0,0.957-0.058,1.436-0.176l4.854-1.201    c1.361-0.336,2.51-1.127,3.305-2.159s1.254-2.316,1.254-3.67c0-0.474-0.057-0.956-0.174-1.435l-1.783-7.204    c4.699-3.896,8.275-8.789,10.219-14.312H89c3.313-0.008,5.992-2.687,6-6v-8C94.992,47.608,92.313,44.93,89,44.922z M40.064,11.997    c1.906-1.903,4.518-3.074,7.424-3.075c2.906,0.001,5.518,1.172,7.424,3.075c1.904,1.907,3.076,4.519,3.076,7.425    s-1.172,5.518-3.076,7.424c-1.906,1.904-4.518,3.075-7.424,3.076c-2.906-0.001-5.518-1.172-7.424-3.076    c-1.904-1.906-3.074-4.518-3.076-7.424C36.99,16.516,38.16,13.904,40.064,11.997z M30.686,89.559    c-0.113,0.453-0.369,0.824-0.719,1.097c-0.352,0.271-0.787,0.423-1.229,0.423c-0.156,0-0.313-0.019-0.473-0.059l-4.855-1.201    c-0.455-0.113-0.824-0.367-1.098-0.718c-0.27-0.351-0.422-0.787-0.422-1.229c0-0.155,0.018-0.313,0.059-0.475l1.383-5.592    c0.789,0.519,1.6,1.015,2.434,1.481c1.832,1.026,3.781,1.912,5.809,2.677L30.686,89.559z M73.662,89.101    c-0.271,0.351-0.641,0.604-1.094,0.718l-4.855,1.201c-0.16,0.04-0.318,0.059-0.475,0.059c-0.441,0-0.877-0.152-1.229-0.423    c-0.35-0.272-0.605-0.643-0.719-1.096l-0.885-3.58c2.951-1.112,5.713-2.519,8.238-4.175l1.383,5.593    c0.039,0.159,0.059,0.316,0.059,0.475C74.086,88.313,73.934,88.75,73.662,89.101z M91,58.922c-0.002,0.549-0.221,1.039-0.59,1.411    c-0.371,0.368-0.861,0.588-1.41,0.589h-4.104c-0.889,0-1.668,0.583-1.92,1.435c-1.875,6.37-6.311,12.005-12.459,16.062    c-6.143,4.054-13.979,6.505-22.529,6.504c-10.045,0.002-19.102-3.382-25.594-8.766c-3.246-2.691-5.85-5.877-7.639-9.383    c-1.787-3.507-2.766-7.33-2.768-11.352c0.002-4.021,0.98-7.845,2.768-11.352c2.682-5.258,7.205-9.799,12.965-13.023    c2.428-1.36,5.088-2.464,7.902-3.307c0.555,0.789,1.188,1.519,1.885,2.182h-2.295c-1.104,0-2,0.896-2,2s0.896,2,2,2h24.775    c1.105,0,2-0.896,2-2s-0.895-2-2-2h-2.52c0.768-0.73,1.463-1.534,2.057-2.416c2.74,0.759,5.338,1.762,7.732,3.01    c0.803,0.419,1.793,0.242,2.402-0.428c2.408-2.652,5.627-4.176,8.541-4.164c0.482,0,0.955,0.046,1.422,0.127l-2.551,8.604    c-0.242,0.163-0.465,0.36-0.621,0.625c-0.447,0.76-0.344,1.724,0.254,2.372c2.717,2.942,4.756,6.297,5.979,9.91    c0.273,0.813,1.035,1.359,1.895,1.359H89c0.549,0,1.039,0.221,1.41,0.589c0.369,0.372,0.588,0.862,0.59,1.411V58.922z"/></g></g></svg>