<svg id="icon" xmlns="http://www.w3.org/2000/svg" viewBox="0 0 128 128"><style>.st0{fill:#fff}.st1{fill:none;stroke:#3b434f;stroke-width:2;stroke-miterlimit:10}.st2{fill:#f5f3ef}.st3{fill:#3b434f}</style><path class="st0" d="M106 107.2H22.9c-6.6 0-12-5.4-12-12V50c0-6.6 5.4-12 12-12H106c6.6 0 12 5.4 12 12v45.2c0 6.6-5.4 12-12 12z"/><path class="st0" d="M72.8 41.7H52.9c-5.7 0-10.4-4.7-10.4-10.4s4.7-10.4 10.4-10.4h19.9c5.7 0 10.4 4.7 10.4 10.4.1 5.7-4.6 10.4-10.4 10.4z"/><path class="st1" d="M117.1 95.9c0 6.3-6 11.3-12.3 11.3H22.5c-6.4 0-11.6-5-11.6-11.3v-50c0-6.3 5.3-10.6 11.6-10.6h82.2c6.4 0 12.3 4.3 12.3 10.6v50zM10.9 94.6h106M83.8 35.2c.1 0 .1-1 .1-1.5 0-7.2-5.8-12.9-13-12.9H54.7c-7.2 0-13 5.7-13 12.9 0 .6 0 1.5.1 1.5h42z"/><path class="st2" d="M68.7 78.4H57.8c-4.8 0-8.7-3.9-8.7-8.7 0-4.8 3.9-8.7 8.7-8.7h10.9c4.8 0 8.7 3.9 8.7 8.7 0 4.8-3.9 8.7-8.7 8.7z"/><path class="st3" d="M101.7 35.2H25.6c-7.2 0-14.7 3.4-14.7 10.5V57c0 7.2 5.7 14.1 12.9 14.1h24.5v-1.3c0-4.9 4-9.5 8.9-9.5h11.3c4.9 0 8.9 4.5 8.9 9.5v1.3h26.1c7.2 0 13.6-7 13.6-14.1V45.7c0-7.1-8.2-10.5-15.4-10.5z"/><path class="st1" d="M77.4 69.4c0 4.9-3.6 9-8.1 9h-13c-4.5 0-8.1-4.1-8.1-9s3.6-9 8.1-9h13c4.5 0 8.1 4.1 8.1 9z"/></svg>