<?xml version="1.0"?>
<!--Icons from directory ""-->
<svg xmlns="http://www.w3.org/2000/svg" width="32" height="32" viewBox="0 0 32 32"><svg xmlns:rdf="http://www.w3.org/1999/02/22-rdf-syntax-ns#" xmlns:cc="http://creativecommons.org/ns#" xmlns:dc="http://purl.org/dc/elements/1.1/" version="1.1" y="0" x="0px" viewBox="0 0 100 125" width="32" height="32" id="noun_876287_cc"><g transform="translate(0 -952.36)"><path style="block-progression:tb;text-indent:0;color:#000000;text-transform:none" d="m27 14c-3.289 0-6 2.711-6 6v64a2.0002 2.0002 0 0 0 3.25 1.562l18.75-15 18.75 15a2.0002 2.0002 0 0 0 3.25 -1.562v-21.156c7.869-0.993 14-7.712 14-15.844s-6.131-14.851-14-15.844v-11.156c0-3.289-2.711-6-6-6h-32zm0 4h32c1.143 0 2 0.857 2 2v11.156c-7.869 0.993-14 7.712-14 15.844s6.131 14.851 14 15.844v17l-16.75-13.406a2.0002 2.0002 0 0 0 -2.5 0l-16.75 13.406v-59.844c0-1.143 0.857-2 2-2zm36 17c6.651 0 12 5.349 12 12s-5.349 12-12 12-12-5.349-12-12 5.349-12 12-12zm-0.219 1.969a2.0002 2.0002 0 0 0 -1.781 2.031v6h-6a2.0002 2.0002 0 0 0 -0.188 0 2.0022 2.0022 0 1 0 0.188 4h6v6a2.0002 2.0002 0 1 0 4 0v-6h6a2.0002 2.0002 0 1 0 0 -4h-6v-6a2.0002 2.0002 0 0 0 -2.219 -2.031z" transform="translate(0 952.36)"/></g><text font-size="5px" font-family="'Helvetica Neue', Helvetica, Arial-Unicode, Arial, Sans-serif" y="115" x="0" font-weight="bold" fill="#000000">Created by amy morgan</text><text font-size="5px" font-family="'Helvetica Neue', Helvetica, Arial-Unicode, Arial, Sans-serif" y="120" x="0" font-weight="bold" fill="#000000">from the Noun Project</text></svg></svg>
