<svg id="delivAndPaym-uponReceipt" xmlns="http://www.w3.org/2000/svg" viewBox="0 0 22.665972 22.665972" height="40px" width="40px"><defs><clipPath id="a"><path d="M0 64.25h64.25V0H0z"/></clipPath></defs><g fill="#FF8F14" clip-path="url(#a)" transform="matrix(.35278 0 0 -.35278 0 22.666)"><path d="M62.75 32.125C62.75 15.21 49.04 1.5 32.125 1.5 15.21 1.5 1.5 15.21 1.5 32.125 1.5 49.04 15.21 62.75 32.125 62.75c16.914 0 30.625-13.71 30.625-30.625z" fill="none" stroke="#FF8F14" stroke-width="3" stroke-miterlimit="10"/><path d="M32.125 22.9c-6.123 0-11.085 4.964-11.085 11.086 0 6.123 4.962 11.086 11.085 11.086 6.122 0 11.085-4.963 11.085-11.086 0-6.122-4.963-11.085-11.085-11.085m0 25.867c-8.98 0-16.26-7.28-16.26-16.26 0-8.978 16.26-20.69 16.26-20.69s16.26 11.712 16.26 20.69c0 8.98-7.28 16.26-16.26 16.26"/></g></svg>